solid OpenSCAD_Model
  facet normal 1 -0 0
    outer loop
      vertex -21.25 9.125 8
      vertex -21.25 10.625 5.75
      vertex -21.25 10.625 8
    endloop
  endfacet
  facet normal 1 0 0
    outer loop
      vertex -21.25 10.625 5.75
      vertex -21.25 9.125 8
      vertex -21.25 9.125 5.75
    endloop
  endfacet
  facet normal -1 0 0
    outer loop
      vertex 21.25 9.125 5.75
      vertex 21.25 10.625 8
      vertex 21.25 10.625 5.75
    endloop
  endfacet
  facet normal -1 -0 0
    outer loop
      vertex 21.25 10.625 8
      vertex 21.25 9.125 5.75
      vertex 21.25 9.125 8
    endloop
  endfacet
  facet normal -0 0 1
    outer loop
      vertex 19.5 10.625 5.75
      vertex 21.25 9.125 5.75
      vertex 21.25 10.625 5.75
    endloop
  endfacet
  facet normal 0 0 1
    outer loop
      vertex 21.25 9.125 5.75
      vertex 19.5 10.625 5.75
      vertex 19.5 9.125 5.75
    endloop
  endfacet
  facet normal -0 0 1
    outer loop
      vertex -21.25 10.625 5.75
      vertex -19.5 9.125 5.75
      vertex -19.5 10.625 5.75
    endloop
  endfacet
  facet normal 0 0 1
    outer loop
      vertex -19.5 9.125 5.75
      vertex -21.25 10.625 5.75
      vertex -21.25 9.125 5.75
    endloop
  endfacet
  facet normal 0.207906 0 -0.978149
    outer loop
      vertex 12.3066 -10.625 -18.9315
      vertex 14.8627 10.625 -18.3882
      vertex 14.8627 -10.625 -18.3882
    endloop
  endfacet
  facet normal 0.207906 0 -0.978149
    outer loop
      vertex 14.8627 10.625 -18.3882
      vertex 12.3066 -10.625 -18.9315
      vertex 12.3066 10.625 -18.9315
    endloop
  endfacet
  facet normal 0.587789 0 -0.809014
    outer loop
      vertex 17.25 -10.625 -17.3253
      vertex 19.3641 10.625 -15.7893
      vertex 19.3641 -10.625 -15.7893
    endloop
  endfacet
  facet normal 0.587789 0 -0.809014
    outer loop
      vertex 19.3641 10.625 -15.7893
      vertex 17.25 -10.625 -17.3253
      vertex 17.25 10.625 -17.3253
    endloop
  endfacet
  facet normal 0.406738 0 -0.913545
    outer loop
      vertex 14.8627 -10.625 -18.3882
      vertex 17.25 10.625 -17.3253
      vertex 17.25 -10.625 -17.3253
    endloop
  endfacet
  facet normal 0.406738 0 -0.913545
    outer loop
      vertex 17.25 10.625 -17.3253
      vertex 14.8627 -10.625 -18.3882
      vertex 14.8627 10.625 -18.3882
    endloop
  endfacet
  facet normal -0.99452 0 -0.104545
    outer loop
      vertex -23.2268 -10.625 -9.0989
      vertex -23.5 10.625 -6.5
      vertex -23.2268 10.625 -9.0989
    endloop
  endfacet
  facet normal -0.99452 -0 -0.104545
    outer loop
      vertex -23.5 10.625 -6.5
      vertex -23.2268 -10.625 -9.0989
      vertex -23.5 -10.625 -6.5
    endloop
  endfacet
  facet normal -1 0 0
    outer loop
      vertex -23.5 -10.625 -6.5
      vertex -23.5 10.625 8
      vertex -23.5 10.625 -6.5
    endloop
  endfacet
  facet normal -1 -0 0
    outer loop
      vertex -23.5 10.625 8
      vertex -23.5 -10.625 -6.5
      vertex -23.5 -10.625 8
    endloop
  endfacet
  facet normal 1 -0 0
    outer loop
      vertex 23.5 -10.625 8
      vertex 23.5 10.625 -6.5
      vertex 23.5 10.625 8
    endloop
  endfacet
  facet normal 1 0 0
    outer loop
      vertex 23.5 10.625 -6.5
      vertex 23.5 -10.625 8
      vertex 23.5 -10.625 -6.5
    endloop
  endfacet
  facet normal 0 0 -1
    outer loop
      vertex -12.3066 -10.625 -18.9315
      vertex 12.3066 10.625 -18.9315
      vertex 12.3066 -10.625 -18.9315
    endloop
  endfacet
  facet normal -0 0 -1
    outer loop
      vertex 12.3066 10.625 -18.9315
      vertex -12.3066 -10.625 -18.9315
      vertex -12.3066 10.625 -18.9315
    endloop
  endfacet
  facet normal -0.587789 0 -0.809014
    outer loop
      vertex -19.3641 -10.625 -15.7893
      vertex -17.25 10.625 -17.3253
      vertex -17.25 -10.625 -17.3253
    endloop
  endfacet
  facet normal -0.587789 0 -0.809014
    outer loop
      vertex -17.25 10.625 -17.3253
      vertex -19.3641 -10.625 -15.7893
      vertex -19.3641 10.625 -15.7893
    endloop
  endfacet
  facet normal -0.951059 0 -0.309009
    outer loop
      vertex -22.4193 -10.625 -11.5842
      vertex -23.2268 10.625 -9.0989
      vertex -22.4193 10.625 -11.5842
    endloop
  endfacet
  facet normal -0.951059 -0 -0.309009
    outer loop
      vertex -23.2268 10.625 -9.0989
      vertex -22.4193 -10.625 -11.5842
      vertex -23.2268 -10.625 -9.0989
    endloop
  endfacet
  facet normal -0.406738 0 -0.913545
    outer loop
      vertex -17.25 -10.625 -17.3253
      vertex -14.8627 10.625 -18.3882
      vertex -14.8627 -10.625 -18.3882
    endloop
  endfacet
  facet normal -0.406738 0 -0.913545
    outer loop
      vertex -14.8627 10.625 -18.3882
      vertex -17.25 -10.625 -17.3253
      vertex -17.25 10.625 -17.3253
    endloop
  endfacet
  facet normal 0.866026 0 -0.5
    outer loop
      vertex 22.4193 -10.625 -11.5842
      vertex 21.1127 10.625 -13.8473
      vertex 22.4193 10.625 -11.5842
    endloop
  endfacet
  facet normal 0.866026 0 -0.5
    outer loop
      vertex 21.1127 10.625 -13.8473
      vertex 22.4193 -10.625 -11.5842
      vertex 21.1127 -10.625 -13.8473
    endloop
  endfacet
  facet normal -0.743142 0 -0.669134
    outer loop
      vertex -19.3641 -10.625 -15.7893
      vertex -21.1127 10.625 -13.8473
      vertex -19.3641 10.625 -15.7893
    endloop
  endfacet
  facet normal -0.743142 -0 -0.669134
    outer loop
      vertex -21.1127 10.625 -13.8473
      vertex -19.3641 -10.625 -15.7893
      vertex -21.1127 -10.625 -13.8473
    endloop
  endfacet
  facet normal 0.951059 0 -0.309009
    outer loop
      vertex 23.2268 -10.625 -9.0989
      vertex 22.4193 10.625 -11.5842
      vertex 23.2268 10.625 -9.0989
    endloop
  endfacet
  facet normal 0.951059 0 -0.309009
    outer loop
      vertex 22.4193 10.625 -11.5842
      vertex 23.2268 -10.625 -9.0989
      vertex 22.4193 -10.625 -11.5842
    endloop
  endfacet
  facet normal -0.207906 0 -0.978149
    outer loop
      vertex -14.8627 -10.625 -18.3882
      vertex -12.3066 10.625 -18.9315
      vertex -12.3066 -10.625 -18.9315
    endloop
  endfacet
  facet normal -0.207906 0 -0.978149
    outer loop
      vertex -12.3066 10.625 -18.9315
      vertex -14.8627 -10.625 -18.3882
      vertex -14.8627 10.625 -18.3882
    endloop
  endfacet
  facet normal 0 -1 0
    outer loop
      vertex -12.3066 -10.625 -18.9315
      vertex -23.5 -10.625 8
      vertex -23.5 -10.625 -6.5
    endloop
  endfacet
  facet normal 0 -1 0
    outer loop
      vertex -23.5 -10.625 8
      vertex -12.3066 -10.625 -18.9315
      vertex 23.5 -10.625 8
    endloop
  endfacet
  facet normal 0 -1 0
    outer loop
      vertex -12.3066 -10.625 -18.9315
      vertex -23.5 -10.625 -6.5
      vertex -23.2268 -10.625 -9.0989
    endloop
  endfacet
  facet normal 0 -1 0
    outer loop
      vertex 12.3066 -10.625 -18.9315
      vertex 23.5 -10.625 8
      vertex -12.3066 -10.625 -18.9315
    endloop
  endfacet
  facet normal 0 -1 0
    outer loop
      vertex -12.3066 -10.625 -18.9315
      vertex -23.2268 -10.625 -9.0989
      vertex -22.4193 -10.625 -11.5842
    endloop
  endfacet
  facet normal 0 -1 -0
    outer loop
      vertex 23.5 -10.625 8
      vertex 12.3066 -10.625 -18.9315
      vertex 23.5 -10.625 -6.5
    endloop
  endfacet
  facet normal 0 -1 0
    outer loop
      vertex -12.3066 -10.625 -18.9315
      vertex -22.4193 -10.625 -11.5842
      vertex -21.1127 -10.625 -13.8473
    endloop
  endfacet
  facet normal 0 -1 0
    outer loop
      vertex 23.5 -10.625 -6.5
      vertex 12.3066 -10.625 -18.9315
      vertex 23.2268 -10.625 -9.0989
    endloop
  endfacet
  facet normal 0 -1 0
    outer loop
      vertex -12.3066 -10.625 -18.9315
      vertex -21.1127 -10.625 -13.8473
      vertex -19.3641 -10.625 -15.7893
    endloop
  endfacet
  facet normal 0 -1 0
    outer loop
      vertex 23.2268 -10.625 -9.0989
      vertex 12.3066 -10.625 -18.9315
      vertex 22.4193 -10.625 -11.5842
    endloop
  endfacet
  facet normal 0 -1 0
    outer loop
      vertex -12.3066 -10.625 -18.9315
      vertex -19.3641 -10.625 -15.7893
      vertex -17.25 -10.625 -17.3253
    endloop
  endfacet
  facet normal 0 -1 0
    outer loop
      vertex 22.4193 -10.625 -11.5842
      vertex 12.3066 -10.625 -18.9315
      vertex 21.1127 -10.625 -13.8473
    endloop
  endfacet
  facet normal 0 -1 0
    outer loop
      vertex -12.3066 -10.625 -18.9315
      vertex -17.25 -10.625 -17.3253
      vertex -14.8627 -10.625 -18.3882
    endloop
  endfacet
  facet normal 0 -1 0
    outer loop
      vertex 21.1127 -10.625 -13.8473
      vertex 12.3066 -10.625 -18.9315
      vertex 19.3641 -10.625 -15.7893
    endloop
  endfacet
  facet normal 0 -1 0
    outer loop
      vertex 19.3641 -10.625 -15.7893
      vertex 12.3066 -10.625 -18.9315
      vertex 17.25 -10.625 -17.3253
    endloop
  endfacet
  facet normal 0 -1 0
    outer loop
      vertex 17.25 -10.625 -17.3253
      vertex 12.3066 -10.625 -18.9315
      vertex 14.8627 -10.625 -18.3882
    endloop
  endfacet
  facet normal -0.866026 0 -0.5
    outer loop
      vertex -21.1127 -10.625 -13.8473
      vertex -22.4193 10.625 -11.5842
      vertex -21.1127 10.625 -13.8473
    endloop
  endfacet
  facet normal -0.866026 -0 -0.5
    outer loop
      vertex -22.4193 10.625 -11.5842
      vertex -21.1127 -10.625 -13.8473
      vertex -22.4193 -10.625 -11.5842
    endloop
  endfacet
  facet normal 0.99452 0 -0.104545
    outer loop
      vertex 23.5 -10.625 -6.5
      vertex 23.2268 10.625 -9.0989
      vertex 23.5 10.625 -6.5
    endloop
  endfacet
  facet normal 0.99452 0 -0.104545
    outer loop
      vertex 23.2268 10.625 -9.0989
      vertex 23.5 -10.625 -6.5
      vertex 23.2268 -10.625 -9.0989
    endloop
  endfacet
  facet normal 0.743142 0 -0.669134
    outer loop
      vertex 21.1127 -10.625 -13.8473
      vertex 19.3641 10.625 -15.7893
      vertex 21.1127 10.625 -13.8473
    endloop
  endfacet
  facet normal 0.743142 0 -0.669134
    outer loop
      vertex 19.3641 10.625 -15.7893
      vertex 21.1127 -10.625 -13.8473
      vertex 19.3641 -10.625 -15.7893
    endloop
  endfacet
  facet normal 0 1 0
    outer loop
      vertex 23.5 10.625 8
      vertex 21.25 10.625 5.75
      vertex 21.25 10.625 8
    endloop
  endfacet
  facet normal 0 1 -0
    outer loop
      vertex 23.5 10.625 -6.5
      vertex 21.25 10.625 5.75
      vertex 23.5 10.625 8
    endloop
  endfacet
  facet normal 0 1 0
    outer loop
      vertex 19.5 10.625 -7
      vertex 21.25 10.625 5.75
      vertex 23.5 10.625 -6.5
    endloop
  endfacet
  facet normal 0 1 0
    outer loop
      vertex 21.25 10.625 5.75
      vertex 19.5 10.625 -7
      vertex 19.5 10.625 5.75
    endloop
  endfacet
  facet normal 0 1 -0
    outer loop
      vertex 23.2268 10.625 -9.0989
      vertex 19.5 10.625 -7
      vertex 23.5 10.625 -6.5
    endloop
  endfacet
  facet normal 0 1 0
    outer loop
      vertex 19.5 10.625 -7
      vertex 23.2268 10.625 -9.0989
      vertex 19.3252 10.625 -8.66329
    endloop
  endfacet
  facet normal 0 1 -0
    outer loop
      vertex 22.4193 10.625 -11.5842
      vertex 19.3252 10.625 -8.66329
      vertex 23.2268 10.625 -9.0989
    endloop
  endfacet
  facet normal 0 1 0
    outer loop
      vertex 19.3252 10.625 -8.66329
      vertex 22.4193 10.625 -11.5842
      vertex 18.8084 10.625 -10.2539
    endloop
  endfacet
  facet normal 0 1 -0
    outer loop
      vertex 21.1127 10.625 -13.8473
      vertex 18.8084 10.625 -10.2539
      vertex 22.4193 10.625 -11.5842
    endloop
  endfacet
  facet normal 0 1 0
    outer loop
      vertex 18.8084 10.625 -10.2539
      vertex 21.1127 10.625 -13.8473
      vertex 17.9721 10.625 -11.7023
    endloop
  endfacet
  facet normal 0 1 -0
    outer loop
      vertex 19.3641 10.625 -15.7893
      vertex 17.9721 10.625 -11.7023
      vertex 21.1127 10.625 -13.8473
    endloop
  endfacet
  facet normal 0 1 0
    outer loop
      vertex 17.9721 10.625 -11.7023
      vertex 19.3641 10.625 -15.7893
      vertex 16.853 10.625 -12.9452
    endloop
  endfacet
  facet normal 0 1 0
    outer loop
      vertex 16.853 10.625 -12.9452
      vertex 19.3641 10.625 -15.7893
      vertex 15.5 10.625 -13.9282
    endloop
  endfacet
  facet normal 0 1 -0
    outer loop
      vertex 17.25 10.625 -17.3253
      vertex 15.5 10.625 -13.9282
      vertex 19.3641 10.625 -15.7893
    endloop
  endfacet
  facet normal 0 1 -0
    outer loop
      vertex 14.8627 10.625 -18.3882
      vertex 13.9721 10.625 -14.6085
      vertex 17.25 10.625 -17.3253
    endloop
  endfacet
  facet normal 0 1 0
    outer loop
      vertex 15.5 10.625 -13.9282
      vertex 17.25 10.625 -17.3253
      vertex 13.9721 10.625 -14.6085
    endloop
  endfacet
  facet normal 0 1 -0
    outer loop
      vertex -19.5 10.625 -7
      vertex -21.25 10.625 5.75
      vertex -19.5 10.625 5.75
    endloop
  endfacet
  facet normal 0 1 0
    outer loop
      vertex -21.25 10.625 5.75
      vertex -19.5 10.625 -7
      vertex -23.5 10.625 -6.5
    endloop
  endfacet
  facet normal 0 1 0
    outer loop
      vertex -23.2268 10.625 -9.0989
      vertex -19.5 10.625 -7
      vertex -19.3252 10.625 -8.66329
    endloop
  endfacet
  facet normal 0 1 0
    outer loop
      vertex -19.5 10.625 -7
      vertex -23.2268 10.625 -9.0989
      vertex -23.5 10.625 -6.5
    endloop
  endfacet
  facet normal 0 1 0
    outer loop
      vertex -22.4193 10.625 -11.5842
      vertex -19.3252 10.625 -8.66329
      vertex -18.8084 10.625 -10.2539
    endloop
  endfacet
  facet normal 0 1 0
    outer loop
      vertex -19.3252 10.625 -8.66329
      vertex -22.4193 10.625 -11.5842
      vertex -23.2268 10.625 -9.0989
    endloop
  endfacet
  facet normal 0 1 0
    outer loop
      vertex -21.1127 10.625 -13.8473
      vertex -18.8084 10.625 -10.2539
      vertex -17.9721 10.625 -11.7023
    endloop
  endfacet
  facet normal 0 1 0
    outer loop
      vertex -19.3641 10.625 -15.7893
      vertex -17.9721 10.625 -11.7023
      vertex -16.853 10.625 -12.9452
    endloop
  endfacet
  facet normal 0 1 0
    outer loop
      vertex -18.8084 10.625 -10.2539
      vertex -21.1127 10.625 -13.8473
      vertex -22.4193 10.625 -11.5842
    endloop
  endfacet
  facet normal 0 1 0
    outer loop
      vertex -19.3641 10.625 -15.7893
      vertex -16.853 10.625 -12.9452
      vertex -15.5 10.625 -13.9282
    endloop
  endfacet
  facet normal 0 1 0
    outer loop
      vertex -17.25 10.625 -17.3253
      vertex -15.5 10.625 -13.9282
      vertex -13.9721 10.625 -14.6085
    endloop
  endfacet
  facet normal 0 1 0
    outer loop
      vertex -14.8627 10.625 -18.3882
      vertex -13.9721 10.625 -14.6085
      vertex -12.3362 10.625 -14.9562
    endloop
  endfacet
  facet normal 0 1 0
    outer loop
      vertex -17.9721 10.625 -11.7023
      vertex -19.3641 10.625 -15.7893
      vertex -21.1127 10.625 -13.8473
    endloop
  endfacet
  facet normal 0 1 0
    outer loop
      vertex 12.3362 10.625 -14.9562
      vertex 12.3066 10.625 -18.9315
      vertex -12.3362 10.625 -14.9562
    endloop
  endfacet
  facet normal 0 1 0
    outer loop
      vertex 13.9721 10.625 -14.6085
      vertex 14.8627 10.625 -18.3882
      vertex 12.3362 10.625 -14.9562
    endloop
  endfacet
  facet normal 0 1 -0
    outer loop
      vertex -12.3066 10.625 -18.9315
      vertex -12.3362 10.625 -14.9562
      vertex 12.3066 10.625 -18.9315
    endloop
  endfacet
  facet normal 0 1 0
    outer loop
      vertex 12.3362 10.625 -14.9562
      vertex 14.8627 10.625 -18.3882
      vertex 12.3066 10.625 -18.9315
    endloop
  endfacet
  facet normal -0 1 0
    outer loop
      vertex -14.8627 10.625 -18.3882
      vertex -12.3362 10.625 -14.9562
      vertex -12.3066 10.625 -18.9315
    endloop
  endfacet
  facet normal 0 1 0
    outer loop
      vertex -15.5 10.625 -13.9282
      vertex -17.25 10.625 -17.3253
      vertex -19.3641 10.625 -15.7893
    endloop
  endfacet
  facet normal 0 1 0
    outer loop
      vertex -13.9721 10.625 -14.6085
      vertex -14.8627 10.625 -18.3882
      vertex -17.25 10.625 -17.3253
    endloop
  endfacet
  facet normal 0 1 -0
    outer loop
      vertex -21.25 10.625 5.75
      vertex -23.5 10.625 8
      vertex -21.25 10.625 8
    endloop
  endfacet
  facet normal 0 1 0
    outer loop
      vertex -23.5 10.625 8
      vertex -21.25 10.625 5.75
      vertex -23.5 10.625 -6.5
    endloop
  endfacet
  facet normal 1 -0 0
    outer loop
      vertex -21.5 -9.125 8
      vertex -21.5 9.125 -7
      vertex -21.5 9.125 8
    endloop
  endfacet
  facet normal 1 0 0
    outer loop
      vertex -21.5 9.125 -7
      vertex -21.5 -9.125 8
      vertex -21.5 -9.125 -7
    endloop
  endfacet
  facet normal -0.951061 0 0.309003
    outer loop
      vertex 20.6355 -9.125 -11.0674
      vertex 21.2815 9.125 -9.07912
      vertex 20.6355 9.125 -11.0674
    endloop
  endfacet
  facet normal -0.951061 0 0.309003
    outer loop
      vertex 21.2815 9.125 -9.07912
      vertex 20.6355 -9.125 -11.0674
      vertex 21.2815 -9.125 -9.07912
    endloop
  endfacet
  facet normal -0.994523 0 0.104517
    outer loop
      vertex 21.2815 -9.125 -9.07912
      vertex 21.5 9.125 -7
      vertex 21.2815 9.125 -9.07912
    endloop
  endfacet
  facet normal -0.994523 0 0.104517
    outer loop
      vertex 21.5 9.125 -7
      vertex 21.2815 -9.125 -9.07912
      vertex 21.5 -9.125 -7
    endloop
  endfacet
  facet normal -0.866024 0 0.500003
    outer loop
      vertex 19.5902 -9.125 -12.8779
      vertex 20.6355 9.125 -11.0674
      vertex 19.5902 9.125 -12.8779
    endloop
  endfacet
  facet normal -0.866024 0 0.500003
    outer loop
      vertex 20.6355 9.125 -11.0674
      vertex 19.5902 -9.125 -12.8779
      vertex 20.6355 -9.125 -11.0674
    endloop
  endfacet
  facet normal -0.743116 0 0.669163
    outer loop
      vertex 18.1913 -9.125 -14.4314
      vertex 19.5902 9.125 -12.8779
      vertex 18.1913 9.125 -14.4314
    endloop
  endfacet
  facet normal -0.743116 0 0.669163
    outer loop
      vertex 19.5902 9.125 -12.8779
      vertex 18.1913 -9.125 -14.4314
      vertex 19.5902 -9.125 -12.8779
    endloop
  endfacet
  facet normal 0.207886 0 0.978153
    outer loop
      vertex -14.5902 9.125 -16.5106
      vertex -12.5453 -9.125 -16.9452
      vertex -12.5453 9.125 -16.9452
    endloop
  endfacet
  facet normal 0.207886 0 0.978153
    outer loop
      vertex -12.5453 -9.125 -16.9452
      vertex -14.5902 9.125 -16.5106
      vertex -14.5902 -9.125 -16.5106
    endloop
  endfacet
  facet normal -1 0 0
    outer loop
      vertex 21.5 -9.125 -7
      vertex 21.5 9.125 8
      vertex 21.5 9.125 -7
    endloop
  endfacet
  facet normal -1 -0 0
    outer loop
      vertex 21.5 9.125 8
      vertex 21.5 -9.125 -7
      vertex 21.5 -9.125 8
    endloop
  endfacet
  facet normal -0.207886 0 0.978153
    outer loop
      vertex 12.5453 9.125 -16.9452
      vertex 14.5902 -9.125 -16.5106
      vertex 14.5902 9.125 -16.5106
    endloop
  endfacet
  facet normal -0.207886 0 0.978153
    outer loop
      vertex 14.5902 -9.125 -16.5106
      vertex 12.5453 9.125 -16.9452
      vertex 12.5453 -9.125 -16.9452
    endloop
  endfacet
  facet normal -0.587816 0 0.808995
    outer loop
      vertex 16.5 9.125 -15.6603
      vertex 18.1913 -9.125 -14.4314
      vertex 18.1913 9.125 -14.4314
    endloop
  endfacet
  facet normal -0.587816 0 0.808995
    outer loop
      vertex 18.1913 -9.125 -14.4314
      vertex 16.5 9.125 -15.6603
      vertex 16.5 -9.125 -15.6603
    endloop
  endfacet
  facet normal -0 0 1
    outer loop
      vertex -12.5453 9.125 -16.9452
      vertex 12.5453 -9.125 -16.9452
      vertex 12.5453 9.125 -16.9452
    endloop
  endfacet
  facet normal 0 0 1
    outer loop
      vertex 12.5453 -9.125 -16.9452
      vertex -12.5453 9.125 -16.9452
      vertex -12.5453 -9.125 -16.9452
    endloop
  endfacet
  facet normal 0.866024 -0 0.500003
    outer loop
      vertex -20.6355 -9.125 -11.0674
      vertex -19.5902 9.125 -12.8779
      vertex -20.6355 9.125 -11.0674
    endloop
  endfacet
  facet normal 0.866024 0 0.500003
    outer loop
      vertex -19.5902 9.125 -12.8779
      vertex -20.6355 -9.125 -11.0674
      vertex -19.5902 -9.125 -12.8779
    endloop
  endfacet
  facet normal -0.406738 0 0.913545
    outer loop
      vertex 14.5902 9.125 -16.5106
      vertex 16.5 -9.125 -15.6603
      vertex 16.5 9.125 -15.6603
    endloop
  endfacet
  facet normal -0.406738 0 0.913545
    outer loop
      vertex 16.5 -9.125 -15.6603
      vertex 14.5902 9.125 -16.5106
      vertex 14.5902 -9.125 -16.5106
    endloop
  endfacet
  facet normal 0.587816 0 0.808995
    outer loop
      vertex -18.1913 9.125 -14.4314
      vertex -16.5 -9.125 -15.6603
      vertex -16.5 9.125 -15.6603
    endloop
  endfacet
  facet normal 0.587816 0 0.808995
    outer loop
      vertex -16.5 -9.125 -15.6603
      vertex -18.1913 9.125 -14.4314
      vertex -18.1913 -9.125 -14.4314
    endloop
  endfacet
  facet normal 0.743116 -0 0.669163
    outer loop
      vertex -19.5902 -9.125 -12.8779
      vertex -18.1913 9.125 -14.4314
      vertex -19.5902 9.125 -12.8779
    endloop
  endfacet
  facet normal 0.743116 0 0.669163
    outer loop
      vertex -18.1913 9.125 -14.4314
      vertex -19.5902 -9.125 -12.8779
      vertex -18.1913 -9.125 -14.4314
    endloop
  endfacet
  facet normal 0.994523 -0 0.104517
    outer loop
      vertex -21.5 -9.125 -7
      vertex -21.2815 9.125 -9.07912
      vertex -21.5 9.125 -7
    endloop
  endfacet
  facet normal 0.994523 0 0.104517
    outer loop
      vertex -21.2815 9.125 -9.07912
      vertex -21.5 -9.125 -7
      vertex -21.2815 -9.125 -9.07912
    endloop
  endfacet
  facet normal 0.951061 -0 0.309003
    outer loop
      vertex -21.2815 -9.125 -9.07912
      vertex -20.6355 9.125 -11.0674
      vertex -21.2815 9.125 -9.07912
    endloop
  endfacet
  facet normal 0.951061 0 0.309003
    outer loop
      vertex -20.6355 9.125 -11.0674
      vertex -21.2815 -9.125 -9.07912
      vertex -20.6355 -9.125 -11.0674
    endloop
  endfacet
  facet normal 0 -1 0
    outer loop
      vertex -21.5 9.125 8
      vertex -21.25 9.125 5.75
      vertex -21.25 9.125 8
    endloop
  endfacet
  facet normal 0 -1 0
    outer loop
      vertex -21.5 9.125 -7
      vertex -21.25 9.125 5.75
      vertex -21.5 9.125 8
    endloop
  endfacet
  facet normal 0 -1 0
    outer loop
      vertex -19.5 9.125 -7
      vertex -21.25 9.125 5.75
      vertex -21.5 9.125 -7
    endloop
  endfacet
  facet normal 0 -1 0
    outer loop
      vertex -21.25 9.125 5.75
      vertex -19.5 9.125 -7
      vertex -19.5 9.125 5.75
    endloop
  endfacet
  facet normal 0 -1 0
    outer loop
      vertex -21.5 9.125 -7
      vertex -19.3252 9.125 -8.66329
      vertex -19.5 9.125 -7
    endloop
  endfacet
  facet normal 0 -1 0
    outer loop
      vertex -21.2815 9.125 -9.07912
      vertex -19.3252 9.125 -8.66329
      vertex -21.5 9.125 -7
    endloop
  endfacet
  facet normal 0 -1 0
    outer loop
      vertex -21.2815 9.125 -9.07912
      vertex -18.8084 9.125 -10.2539
      vertex -19.3252 9.125 -8.66329
    endloop
  endfacet
  facet normal 0 -1 0
    outer loop
      vertex -20.6355 9.125 -11.0674
      vertex -18.8084 9.125 -10.2539
      vertex -21.2815 9.125 -9.07912
    endloop
  endfacet
  facet normal 0 -1 0
    outer loop
      vertex -20.6355 9.125 -11.0674
      vertex -17.9721 9.125 -11.7023
      vertex -18.8084 9.125 -10.2539
    endloop
  endfacet
  facet normal 0 -1 0
    outer loop
      vertex -19.5902 9.125 -12.8779
      vertex -17.9721 9.125 -11.7023
      vertex -20.6355 9.125 -11.0674
    endloop
  endfacet
  facet normal 0 -1 0
    outer loop
      vertex -19.5902 9.125 -12.8779
      vertex -16.853 9.125 -12.9452
      vertex -17.9721 9.125 -11.7023
    endloop
  endfacet
  facet normal 0 -1 0
    outer loop
      vertex -18.1913 9.125 -14.4314
      vertex -16.853 9.125 -12.9452
      vertex -19.5902 9.125 -12.8779
    endloop
  endfacet
  facet normal 0 -1 -0
    outer loop
      vertex -16.853 9.125 -12.9452
      vertex -18.1913 9.125 -14.4314
      vertex -15.5 9.125 -13.9282
    endloop
  endfacet
  facet normal 0 -1 0
    outer loop
      vertex -16.5 9.125 -15.6603
      vertex -15.5 9.125 -13.9282
      vertex -18.1913 9.125 -14.4314
    endloop
  endfacet
  facet normal 0 -1 -0
    outer loop
      vertex -15.5 9.125 -13.9282
      vertex -16.5 9.125 -15.6603
      vertex -13.9721 9.125 -14.6085
    endloop
  endfacet
  facet normal 0 -1 -0
    outer loop
      vertex -13.9721 9.125 -14.6085
      vertex -14.5902 9.125 -16.5106
      vertex -12.3362 9.125 -14.9562
    endloop
  endfacet
  facet normal 0 -1 0
    outer loop
      vertex -14.5902 9.125 -16.5106
      vertex -13.9721 9.125 -14.6085
      vertex -16.5 9.125 -15.6603
    endloop
  endfacet
  facet normal 0 -1 0
    outer loop
      vertex 19.5 9.125 5.75
      vertex 19.5 9.125 -7
      vertex 21.25 9.125 5.75
    endloop
  endfacet
  facet normal 0 -1 0
    outer loop
      vertex 21.25 9.125 5.75
      vertex 21.5 9.125 8
      vertex 21.25 9.125 8
    endloop
  endfacet
  facet normal 0 -1 0
    outer loop
      vertex 21.25 9.125 5.75
      vertex 21.5 9.125 -7
      vertex 21.5 9.125 8
    endloop
  endfacet
  facet normal 0 -1 0
    outer loop
      vertex 19.5 9.125 -7
      vertex 21.5 9.125 -7
      vertex 21.25 9.125 5.75
    endloop
  endfacet
  facet normal 0 -1 0
    outer loop
      vertex 19.3252 9.125 -8.66329
      vertex 21.5 9.125 -7
      vertex 19.5 9.125 -7
    endloop
  endfacet
  facet normal 0 -1 0
    outer loop
      vertex 19.3252 9.125 -8.66329
      vertex 21.2815 9.125 -9.07912
      vertex 21.5 9.125 -7
    endloop
  endfacet
  facet normal 0 -1 0
    outer loop
      vertex 18.8084 9.125 -10.2539
      vertex 21.2815 9.125 -9.07912
      vertex 19.3252 9.125 -8.66329
    endloop
  endfacet
  facet normal 0 -1 0
    outer loop
      vertex 18.8084 9.125 -10.2539
      vertex 20.6355 9.125 -11.0674
      vertex 21.2815 9.125 -9.07912
    endloop
  endfacet
  facet normal 0 -1 0
    outer loop
      vertex 17.9721 9.125 -11.7023
      vertex 20.6355 9.125 -11.0674
      vertex 18.8084 9.125 -10.2539
    endloop
  endfacet
  facet normal 0 -1 0
    outer loop
      vertex 17.9721 9.125 -11.7023
      vertex 19.5902 9.125 -12.8779
      vertex 20.6355 9.125 -11.0674
    endloop
  endfacet
  facet normal 0 -1 0
    outer loop
      vertex 16.853 9.125 -12.9452
      vertex 19.5902 9.125 -12.8779
      vertex 17.9721 9.125 -11.7023
    endloop
  endfacet
  facet normal 0 -1 0
    outer loop
      vertex 18.1913 9.125 -14.4314
      vertex 16.853 9.125 -12.9452
      vertex 15.5 9.125 -13.9282
    endloop
  endfacet
  facet normal 0 -1 0
    outer loop
      vertex 16.853 9.125 -12.9452
      vertex 18.1913 9.125 -14.4314
      vertex 19.5902 9.125 -12.8779
    endloop
  endfacet
  facet normal 0 -1 0
    outer loop
      vertex 16.5 9.125 -15.6603
      vertex 15.5 9.125 -13.9282
      vertex 13.9721 9.125 -14.6085
    endloop
  endfacet
  facet normal 0 -1 0
    outer loop
      vertex 14.5902 9.125 -16.5106
      vertex 13.9721 9.125 -14.6085
      vertex 12.3362 9.125 -14.9562
    endloop
  endfacet
  facet normal 0 -1 0
    outer loop
      vertex 15.5 9.125 -13.9282
      vertex 16.5 9.125 -15.6603
      vertex 18.1913 9.125 -14.4314
    endloop
  endfacet
  facet normal 0 -1 -0
    outer loop
      vertex -12.3362 9.125 -14.9562
      vertex -12.5453 9.125 -16.9452
      vertex 12.3362 9.125 -14.9562
    endloop
  endfacet
  facet normal 0 -1 0
    outer loop
      vertex -12.3362 9.125 -14.9562
      vertex -14.5902 9.125 -16.5106
      vertex -12.5453 9.125 -16.9452
    endloop
  endfacet
  facet normal 0 -1 0
    outer loop
      vertex 12.5453 9.125 -16.9452
      vertex 12.3362 9.125 -14.9562
      vertex -12.5453 9.125 -16.9452
    endloop
  endfacet
  facet normal -0 -1 0
    outer loop
      vertex 14.5902 9.125 -16.5106
      vertex 12.3362 9.125 -14.9562
      vertex 12.5453 9.125 -16.9452
    endloop
  endfacet
  facet normal 0 -1 0
    outer loop
      vertex 13.9721 9.125 -14.6085
      vertex 14.5902 9.125 -16.5106
      vertex 16.5 9.125 -15.6603
    endloop
  endfacet
  facet normal 0.406738 0 0.913545
    outer loop
      vertex -16.5 9.125 -15.6603
      vertex -14.5902 -9.125 -16.5106
      vertex -14.5902 9.125 -16.5106
    endloop
  endfacet
  facet normal 0.406738 0 0.913545
    outer loop
      vertex -14.5902 -9.125 -16.5106
      vertex -16.5 9.125 -15.6603
      vertex -16.5 -9.125 -15.6603
    endloop
  endfacet
  facet normal 0 1 0
    outer loop
      vertex 12.5453 -9.125 -16.9452
      vertex 21.5 -9.125 8
      vertex 21.5 -9.125 -7
    endloop
  endfacet
  facet normal 0 1 0
    outer loop
      vertex 21.5 -9.125 8
      vertex 12.5453 -9.125 -16.9452
      vertex -21.5 -9.125 8
    endloop
  endfacet
  facet normal 0 1 0
    outer loop
      vertex 12.5453 -9.125 -16.9452
      vertex 21.5 -9.125 -7
      vertex 21.2815 -9.125 -9.07912
    endloop
  endfacet
  facet normal 0 1 -0
    outer loop
      vertex -12.5453 -9.125 -16.9452
      vertex -21.5 -9.125 8
      vertex 12.5453 -9.125 -16.9452
    endloop
  endfacet
  facet normal 0 1 0
    outer loop
      vertex 12.5453 -9.125 -16.9452
      vertex 21.2815 -9.125 -9.07912
      vertex 20.6355 -9.125 -11.0674
    endloop
  endfacet
  facet normal 0 1 0
    outer loop
      vertex -21.5 -9.125 8
      vertex -12.5453 -9.125 -16.9452
      vertex -21.5 -9.125 -7
    endloop
  endfacet
  facet normal 0 1 0
    outer loop
      vertex 12.5453 -9.125 -16.9452
      vertex 20.6355 -9.125 -11.0674
      vertex 19.5902 -9.125 -12.8779
    endloop
  endfacet
  facet normal 0 1 0
    outer loop
      vertex -21.5 -9.125 -7
      vertex -12.5453 -9.125 -16.9452
      vertex -21.2815 -9.125 -9.07912
    endloop
  endfacet
  facet normal 0 1 0
    outer loop
      vertex 12.5453 -9.125 -16.9452
      vertex 19.5902 -9.125 -12.8779
      vertex 18.1913 -9.125 -14.4314
    endloop
  endfacet
  facet normal 0 1 0
    outer loop
      vertex -21.2815 -9.125 -9.07912
      vertex -12.5453 -9.125 -16.9452
      vertex -20.6355 -9.125 -11.0674
    endloop
  endfacet
  facet normal 0 1 0
    outer loop
      vertex 12.5453 -9.125 -16.9452
      vertex 18.1913 -9.125 -14.4314
      vertex 16.5 -9.125 -15.6603
    endloop
  endfacet
  facet normal 0 1 0
    outer loop
      vertex -20.6355 -9.125 -11.0674
      vertex -12.5453 -9.125 -16.9452
      vertex -19.5902 -9.125 -12.8779
    endloop
  endfacet
  facet normal 0 1 0
    outer loop
      vertex 12.5453 -9.125 -16.9452
      vertex 16.5 -9.125 -15.6603
      vertex 14.5902 -9.125 -16.5106
    endloop
  endfacet
  facet normal 0 1 0
    outer loop
      vertex -19.5902 -9.125 -12.8779
      vertex -12.5453 -9.125 -16.9452
      vertex -18.1913 -9.125 -14.4314
    endloop
  endfacet
  facet normal 0 1 0
    outer loop
      vertex -18.1913 -9.125 -14.4314
      vertex -12.5453 -9.125 -16.9452
      vertex -16.5 -9.125 -15.6603
    endloop
  endfacet
  facet normal 0 1 0
    outer loop
      vertex -16.5 -9.125 -15.6603
      vertex -12.5453 -9.125 -16.9452
      vertex -14.5902 -9.125 -16.5106
    endloop
  endfacet
  facet normal 1 -0 0
    outer loop
      vertex -19.5 9.125 5.75
      vertex -19.5 10.625 -7
      vertex -19.5 10.625 5.75
    endloop
  endfacet
  facet normal 1 0 0
    outer loop
      vertex -19.5 10.625 -7
      vertex -19.5 9.125 5.75
      vertex -19.5 9.125 -7
    endloop
  endfacet
  facet normal -0.95106 0 0.309006
    outer loop
      vertex 18.8084 9.125 -10.2539
      vertex 19.3252 10.625 -8.66329
      vertex 18.8084 10.625 -10.2539
    endloop
  endfacet
  facet normal -0.95106 0 0.309006
    outer loop
      vertex 19.3252 10.625 -8.66329
      vertex 18.8084 9.125 -10.2539
      vertex 19.3252 9.125 -8.66329
    endloop
  endfacet
  facet normal -0.994523 0 0.104517
    outer loop
      vertex 19.3252 9.125 -8.66329
      vertex 19.5 10.625 -7
      vertex 19.3252 10.625 -8.66329
    endloop
  endfacet
  facet normal -0.994523 0 0.104517
    outer loop
      vertex 19.5 10.625 -7
      vertex 19.3252 9.125 -8.66329
      vertex 19.5 9.125 -7
    endloop
  endfacet
  facet normal -0.866008 0 0.50003
    outer loop
      vertex 17.9721 9.125 -11.7023
      vertex 18.8084 10.625 -10.2539
      vertex 17.9721 10.625 -11.7023
    endloop
  endfacet
  facet normal -0.866008 0 0.50003
    outer loop
      vertex 18.8084 10.625 -10.2539
      vertex 17.9721 9.125 -11.7023
      vertex 18.8084 9.125 -10.2539
    endloop
  endfacet
  facet normal -0.743148 0 0.669127
    outer loop
      vertex 16.853 9.125 -12.9452
      vertex 17.9721 10.625 -11.7023
      vertex 16.853 10.625 -12.9452
    endloop
  endfacet
  facet normal -0.743148 0 0.669127
    outer loop
      vertex 17.9721 10.625 -11.7023
      vertex 16.853 9.125 -12.9452
      vertex 17.9721 9.125 -11.7023
    endloop
  endfacet
  facet normal 0.2079 0 0.97815
    outer loop
      vertex -13.9721 10.625 -14.6085
      vertex -12.3362 9.125 -14.9562
      vertex -12.3362 10.625 -14.9562
    endloop
  endfacet
  facet normal 0.2079 0 0.97815
    outer loop
      vertex -12.3362 9.125 -14.9562
      vertex -13.9721 10.625 -14.6085
      vertex -13.9721 9.125 -14.6085
    endloop
  endfacet
  facet normal -1 0 0
    outer loop
      vertex 19.5 9.125 -7
      vertex 19.5 10.625 5.75
      vertex 19.5 10.625 -7
    endloop
  endfacet
  facet normal -1 -0 0
    outer loop
      vertex 19.5 10.625 5.75
      vertex 19.5 9.125 -7
      vertex 19.5 9.125 5.75
    endloop
  endfacet
  facet normal -0.2079 0 0.97815
    outer loop
      vertex 12.3362 10.625 -14.9562
      vertex 13.9721 9.125 -14.6085
      vertex 13.9721 10.625 -14.6085
    endloop
  endfacet
  facet normal -0.2079 0 0.97815
    outer loop
      vertex 13.9721 9.125 -14.6085
      vertex 12.3362 10.625 -14.9562
      vertex 12.3362 9.125 -14.9562
    endloop
  endfacet
  facet normal -0.587781 0 0.80902
    outer loop
      vertex 15.5 10.625 -13.9282
      vertex 16.853 9.125 -12.9452
      vertex 16.853 10.625 -12.9452
    endloop
  endfacet
  facet normal -0.587781 0 0.80902
    outer loop
      vertex 16.853 9.125 -12.9452
      vertex 15.5 10.625 -13.9282
      vertex 15.5 9.125 -13.9282
    endloop
  endfacet
  facet normal 0.95106 -0 0.309006
    outer loop
      vertex -19.3252 9.125 -8.66329
      vertex -18.8084 10.625 -10.2539
      vertex -19.3252 10.625 -8.66329
    endloop
  endfacet
  facet normal 0.95106 0 0.309006
    outer loop
      vertex -18.8084 10.625 -10.2539
      vertex -19.3252 9.125 -8.66329
      vertex -18.8084 9.125 -10.2539
    endloop
  endfacet
  facet normal -0 0 1
    outer loop
      vertex -12.3362 10.625 -14.9562
      vertex 12.3362 9.125 -14.9562
      vertex 12.3362 10.625 -14.9562
    endloop
  endfacet
  facet normal 0 0 1
    outer loop
      vertex 12.3362 9.125 -14.9562
      vertex -12.3362 10.625 -14.9562
      vertex -12.3362 9.125 -14.9562
    endloop
  endfacet
  facet normal 0.866008 -0 0.50003
    outer loop
      vertex -18.8084 9.125 -10.2539
      vertex -17.9721 10.625 -11.7023
      vertex -18.8084 10.625 -10.2539
    endloop
  endfacet
  facet normal 0.866008 0 0.50003
    outer loop
      vertex -17.9721 10.625 -11.7023
      vertex -18.8084 9.125 -10.2539
      vertex -17.9721 9.125 -11.7023
    endloop
  endfacet
  facet normal -0.406754 0 0.913538
    outer loop
      vertex 13.9721 10.625 -14.6085
      vertex 15.5 9.125 -13.9282
      vertex 15.5 10.625 -13.9282
    endloop
  endfacet
  facet normal -0.406754 0 0.913538
    outer loop
      vertex 15.5 9.125 -13.9282
      vertex 13.9721 10.625 -14.6085
      vertex 13.9721 9.125 -14.6085
    endloop
  endfacet
  facet normal 0.587781 0 0.80902
    outer loop
      vertex -16.853 10.625 -12.9452
      vertex -15.5 9.125 -13.9282
      vertex -15.5 10.625 -13.9282
    endloop
  endfacet
  facet normal 0.587781 0 0.80902
    outer loop
      vertex -15.5 9.125 -13.9282
      vertex -16.853 10.625 -12.9452
      vertex -16.853 9.125 -12.9452
    endloop
  endfacet
  facet normal 0.743148 -0 0.669127
    outer loop
      vertex -17.9721 9.125 -11.7023
      vertex -16.853 10.625 -12.9452
      vertex -17.9721 10.625 -11.7023
    endloop
  endfacet
  facet normal 0.743148 0 0.669127
    outer loop
      vertex -16.853 10.625 -12.9452
      vertex -17.9721 9.125 -11.7023
      vertex -16.853 9.125 -12.9452
    endloop
  endfacet
  facet normal 0.994523 -0 0.104517
    outer loop
      vertex -19.5 9.125 -7
      vertex -19.3252 10.625 -8.66329
      vertex -19.5 10.625 -7
    endloop
  endfacet
  facet normal 0.994523 0 0.104517
    outer loop
      vertex -19.3252 10.625 -8.66329
      vertex -19.5 9.125 -7
      vertex -19.3252 9.125 -8.66329
    endloop
  endfacet
  facet normal 0.406754 0 0.913538
    outer loop
      vertex -15.5 10.625 -13.9282
      vertex -13.9721 9.125 -14.6085
      vertex -13.9721 10.625 -14.6085
    endloop
  endfacet
  facet normal 0.406754 0 0.913538
    outer loop
      vertex -13.9721 9.125 -14.6085
      vertex -15.5 10.625 -13.9282
      vertex -15.5 9.125 -13.9282
    endloop
  endfacet
  facet normal 0 0 1
    outer loop
      vertex -21.25 10.625 8
      vertex -21.5 9.125 8
      vertex -21.25 9.125 8
    endloop
  endfacet
  facet normal 0 0 1
    outer loop
      vertex -21.5 9.125 8
      vertex -23.5 10.625 8
      vertex -21.5 -9.125 8
    endloop
  endfacet
  facet normal -0 0 1
    outer loop
      vertex -23.5 10.625 8
      vertex -21.5 9.125 8
      vertex -21.25 10.625 8
    endloop
  endfacet
  facet normal 0 0 1
    outer loop
      vertex 23.5 10.625 8
      vertex 21.5 9.125 8
      vertex 23.5 -10.625 8
    endloop
  endfacet
  facet normal -0 0 1
    outer loop
      vertex 21.25 10.625 8
      vertex 21.5 9.125 8
      vertex 23.5 10.625 8
    endloop
  endfacet
  facet normal 0 0 1
    outer loop
      vertex 21.5 9.125 8
      vertex 21.25 10.625 8
      vertex 21.25 9.125 8
    endloop
  endfacet
  facet normal -0 0 1
    outer loop
      vertex 21.5 -9.125 8
      vertex 23.5 -10.625 8
      vertex 21.5 9.125 8
    endloop
  endfacet
  facet normal -0 0 1
    outer loop
      vertex -21.5 -9.125 8
      vertex 23.5 -10.625 8
      vertex 21.5 -9.125 8
    endloop
  endfacet
  facet normal 0 0 1
    outer loop
      vertex -21.5 -9.125 8
      vertex -23.5 -10.625 8
      vertex 23.5 -10.625 8
    endloop
  endfacet
  facet normal 0 0 1
    outer loop
      vertex -23.5 -10.625 8
      vertex -21.5 -9.125 8
      vertex -23.5 10.625 8
    endloop
  endfacet
endsolid OpenSCAD_Model
