solid OpenSCAD_Model
  facet normal 0.866024 0.500003 0
    outer loop
      vertex 20.1355 10.5674 -5.875
      vertex 19.0902 12.3779 -7.875
      vertex 19.0902 12.3779 -5.875
    endloop
  endfacet
  facet normal 0.866024 0.500003 0
    outer loop
      vertex 19.0902 12.3779 -7.875
      vertex 20.1355 10.5674 -5.875
      vertex 20.1355 10.5674 -7.875
    endloop
  endfacet
  facet normal -0 0 1
    outer loop
      vertex -21 -1 9.375
      vertex -14.5 -5.8 9.375
      vertex -14.5 -1 9.375
    endloop
  endfacet
  facet normal 0 0 1
    outer loop
      vertex -14.5 -5.8 9.375
      vertex -21 -1 9.375
      vertex -21 -5.8 9.375
    endloop
  endfacet
  facet normal -0 0 1
    outer loop
      vertex 14.5 -1 9.375
      vertex 21 -5.8 9.375
      vertex 21 -1 9.375
    endloop
  endfacet
  facet normal 0 0 1
    outer loop
      vertex 21 -5.8 9.375
      vertex 14.5 -1 9.375
      vertex 14.5 -5.8 9.375
    endloop
  endfacet
  facet normal 0 1 0
    outer loop
      vertex 12.0453 16.4452 -5.875
      vertex 12.0453 16.4452 -7.875
      vertex -8 16.4452 -5.875
    endloop
  endfacet
  facet normal 0 1 -0
    outer loop
      vertex -8 16.4452 -5.875
      vertex -12.0453 16.4452 5.125
      vertex -8 16.4452 5.125
    endloop
  endfacet
  facet normal 0 1 0
    outer loop
      vertex -8 16.4452 -5.875
      vertex -12.0453 16.4452 -7.875
      vertex -12.0453 16.4452 5.125
    endloop
  endfacet
  facet normal 0 1 0
    outer loop
      vertex -12.0453 16.4452 -7.875
      vertex -8 16.4452 -5.875
      vertex 12.0453 16.4452 -7.875
    endloop
  endfacet
  facet normal 0.951061 0.309003 0
    outer loop
      vertex 20.7815 8.57912 -5.875
      vertex 20.1355 10.5674 -7.875
      vertex 20.1355 10.5674 -5.875
    endloop
  endfacet
  facet normal 0.951061 0.309003 0
    outer loop
      vertex 20.1355 10.5674 -7.875
      vertex 20.7815 8.57912 -5.875
      vertex 20.7815 8.57912 -7.875
    endloop
  endfacet
  facet normal 0.587816 0.808995 -0
    outer loop
      vertex 17.6913 13.9314 -7.875
      vertex 16 15.1603 -5.875
      vertex 17.6913 13.9314 -5.875
    endloop
  endfacet
  facet normal 0.587816 0.808995 0
    outer loop
      vertex 16 15.1603 -5.875
      vertex 17.6913 13.9314 -7.875
      vertex 16 15.1603 -7.875
    endloop
  endfacet
  facet normal -0.587816 0.808995 0
    outer loop
      vertex -16 15.1603 -7.875
      vertex -17.6913 13.9314 -5.875
      vertex -16 15.1603 -5.875
    endloop
  endfacet
  facet normal -0.587816 0.808995 0
    outer loop
      vertex -17.6913 13.9314 -5.875
      vertex -16 15.1603 -7.875
      vertex -17.6913 13.9314 -7.875
    endloop
  endfacet
  facet normal -0.406738 0.913545 0
    outer loop
      vertex -14.0902 16.0106 -7.875
      vertex -16 15.1603 -5.875
      vertex -14.0902 16.0106 -5.875
    endloop
  endfacet
  facet normal -0.406738 0.913545 0
    outer loop
      vertex -16 15.1603 -5.875
      vertex -14.0902 16.0106 -7.875
      vertex -16 15.1603 -7.875
    endloop
  endfacet
  facet normal -0.743116 0.669163 0
    outer loop
      vertex -19.0902 12.3779 -7.875
      vertex -17.6913 13.9314 -5.875
      vertex -17.6913 13.9314 -7.875
    endloop
  endfacet
  facet normal -0.743116 0.669163 0
    outer loop
      vertex -17.6913 13.9314 -5.875
      vertex -19.0902 12.3779 -7.875
      vertex -19.0902 12.3779 -5.875
    endloop
  endfacet
  facet normal 0.743116 0.669163 0
    outer loop
      vertex 19.0902 12.3779 -5.875
      vertex 17.6913 13.9314 -7.875
      vertex 17.6913 13.9314 -5.875
    endloop
  endfacet
  facet normal 0.743116 0.669163 0
    outer loop
      vertex 17.6913 13.9314 -7.875
      vertex 19.0902 12.3779 -5.875
      vertex 19.0902 12.3779 -7.875
    endloop
  endfacet
  facet normal -0.994523 0.104517 0
    outer loop
      vertex -21 6.5 -7.875
      vertex -20.7815 8.57912 -5.875
      vertex -20.7815 8.57912 -7.875
    endloop
  endfacet
  facet normal -0.994523 0.104517 0
    outer loop
      vertex -20.7815 8.57912 -5.875
      vertex -21 6.5 -7.875
      vertex -21 6.5 -5.875
    endloop
  endfacet
  facet normal -0.866024 0.500003 0
    outer loop
      vertex -20.1355 10.5674 -7.875
      vertex -19.0902 12.3779 -5.875
      vertex -19.0902 12.3779 -7.875
    endloop
  endfacet
  facet normal -0.866024 0.500003 0
    outer loop
      vertex -19.0902 12.3779 -5.875
      vertex -20.1355 10.5674 -7.875
      vertex -20.1355 10.5674 -5.875
    endloop
  endfacet
  facet normal 0.207886 0.978153 -0
    outer loop
      vertex 14.0902 16.0106 -7.875
      vertex 12.0453 16.4452 -5.875
      vertex 14.0902 16.0106 -5.875
    endloop
  endfacet
  facet normal 0.207886 0.978153 0
    outer loop
      vertex 12.0453 16.4452 -5.875
      vertex 14.0902 16.0106 -7.875
      vertex 12.0453 16.4452 -7.875
    endloop
  endfacet
  facet normal 0.406738 0.913545 -0
    outer loop
      vertex 16 15.1603 -7.875
      vertex 14.0902 16.0106 -5.875
      vertex 16 15.1603 -5.875
    endloop
  endfacet
  facet normal 0.406738 0.913545 0
    outer loop
      vertex 14.0902 16.0106 -5.875
      vertex 16 15.1603 -7.875
      vertex 14.0902 16.0106 -7.875
    endloop
  endfacet
  facet normal -0.951061 0.309003 0
    outer loop
      vertex -20.7815 8.57912 -7.875
      vertex -20.1355 10.5674 -5.875
      vertex -20.1355 10.5674 -7.875
    endloop
  endfacet
  facet normal -0.951061 0.309003 0
    outer loop
      vertex -20.1355 10.5674 -5.875
      vertex -20.7815 8.57912 -7.875
      vertex -20.7815 8.57912 -5.875
    endloop
  endfacet
  facet normal 1 0 0
    outer loop
      vertex 21 -5.8 5
      vertex 21 -1 9.375
      vertex 21 -5.8 9.375
    endloop
  endfacet
  facet normal 1 -0 0
    outer loop
      vertex 21 -1 -5.875
      vertex 21 6.5 -7.875
      vertex 21 6.5 -5.875
    endloop
  endfacet
  facet normal 1 0 0
    outer loop
      vertex 21 -1 9.375
      vertex 21 -5.8 5
      vertex 21 -1 -5.875
    endloop
  endfacet
  facet normal 1 -0 0
    outer loop
      vertex 21 -5.8 -3
      vertex 21 -1 -5.875
      vertex 21 -5.8 5
    endloop
  endfacet
  facet normal 1 0 0
    outer loop
      vertex 21 -1 -5.875
      vertex 21 -5.8 -7.875
      vertex 21 6.5 -7.875
    endloop
  endfacet
  facet normal 1 0 0
    outer loop
      vertex 21 -5.8 -7.875
      vertex 21 -1 -5.875
      vertex 21 -5.8 -3
    endloop
  endfacet
  facet normal 1 -0 0
    outer loop
      vertex 21 -8 5
      vertex 21 -5.8 -3
      vertex 21 -5.8 5
    endloop
  endfacet
  facet normal 1 0 0
    outer loop
      vertex 21 -5.8 -3
      vertex 21 -8 5
      vertex 21 -8 -3
    endloop
  endfacet
  facet normal -0.207884 0.978153 0
    outer loop
      vertex -12.0453 16.4452 5.125
      vertex -13 16.2423 -5.875
      vertex -13 16.2423 5.125
    endloop
  endfacet
  facet normal -0.207884 0.978153 0
    outer loop
      vertex -12.0453 16.4452 -7.875
      vertex -13 16.2423 -5.875
      vertex -12.0453 16.4452 5.125
    endloop
  endfacet
  facet normal -0.207886 0.978153 -5.76397e-07
    outer loop
      vertex -14.0902 16.0106 -7.875
      vertex -13 16.2423 -5.875
      vertex -12.0453 16.4452 -7.875
    endloop
  endfacet
  facet normal -0.207887 0.978153 0
    outer loop
      vertex -13 16.2423 -5.875
      vertex -14.0902 16.0106 -7.875
      vertex -14.0902 16.0106 -5.875
    endloop
  endfacet
  facet normal 0.994523 0.104517 0
    outer loop
      vertex 21 6.5 -5.875
      vertex 20.7815 8.57912 -7.875
      vertex 20.7815 8.57912 -5.875
    endloop
  endfacet
  facet normal 0.994523 0.104517 0
    outer loop
      vertex 20.7815 8.57912 -7.875
      vertex 21 6.5 -5.875
      vertex 21 6.5 -7.875
    endloop
  endfacet
  facet normal -1 0 0
    outer loop
      vertex -21 -8 -3
      vertex -21 -5.8 5
      vertex -21 -5.8 -3
    endloop
  endfacet
  facet normal -1 -0 0
    outer loop
      vertex -21 -5.8 5
      vertex -21 -8 -3
      vertex -21 -8 5
    endloop
  endfacet
  facet normal -1 0 0
    outer loop
      vertex -21 6.5 -7.875
      vertex -21 -1 -5.875
      vertex -21 6.5 -5.875
    endloop
  endfacet
  facet normal -1 0 0
    outer loop
      vertex -21 -5.8 -7.875
      vertex -21 -1 -5.875
      vertex -21 6.5 -7.875
    endloop
  endfacet
  facet normal -1 0 0
    outer loop
      vertex -21 -5.8 -3
      vertex -21 -1 -5.875
      vertex -21 -5.8 -7.875
    endloop
  endfacet
  facet normal -1 0 0
    outer loop
      vertex -21 -5.8 5
      vertex -21 -1 -5.875
      vertex -21 -5.8 -3
    endloop
  endfacet
  facet normal -1 0 0
    outer loop
      vertex -21 -1 -5.875
      vertex -21 -5.8 5
      vertex -21 -1 9.375
    endloop
  endfacet
  facet normal -1 -0 0
    outer loop
      vertex -21 -1 9.375
      vertex -21 -5.8 5
      vertex -21 -5.8 9.375
    endloop
  endfacet
  facet normal 0 -1 0
    outer loop
      vertex -21 -5.8 -3
      vertex -21 -5.8 -7.875
      vertex -18 -5.8 -3
    endloop
  endfacet
  facet normal 0 -1 0
    outer loop
      vertex -18 -5.8 5
      vertex -21 -5.8 9.375
      vertex -21 -5.8 5
    endloop
  endfacet
  facet normal 0 -1 0
    outer loop
      vertex -21 -5.8 9.375
      vertex -18 -5.8 5
      vertex -14.5 -5.8 9.375
    endloop
  endfacet
  facet normal 0 -1 0
    outer loop
      vertex -18 -5.8 -3
      vertex -14.5 -5.8 9.375
      vertex -18 -5.8 5
    endloop
  endfacet
  facet normal 0 -1 0
    outer loop
      vertex -18 -5.8 -3
      vertex -14.5 -5.8 -7.875
      vertex -14.5 -5.8 9.375
    endloop
  endfacet
  facet normal 0 -1 0
    outer loop
      vertex -14.5 -5.8 -7.875
      vertex -18 -5.8 -3
      vertex -21 -5.8 -7.875
    endloop
  endfacet
  facet normal 0 -1 0
    outer loop
      vertex 14.5 -5.8 9.375
      vertex 18 -5.8 5
      vertex 21 -5.8 9.375
    endloop
  endfacet
  facet normal 0 -1 0
    outer loop
      vertex 14.5 -5.8 9.375
      vertex 18 -5.8 -3
      vertex 18 -5.8 5
    endloop
  endfacet
  facet normal 0 -1 0
    outer loop
      vertex 14.5 -5.8 -7.875
      vertex 18 -5.8 -3
      vertex 14.5 -5.8 9.375
    endloop
  endfacet
  facet normal 0 -1 0
    outer loop
      vertex 21 -5.8 -7.875
      vertex 18 -5.8 -3
      vertex 14.5 -5.8 -7.875
    endloop
  endfacet
  facet normal 0 -1 0
    outer loop
      vertex 18 -5.8 -3
      vertex 21 -5.8 -7.875
      vertex 21 -5.8 -3
    endloop
  endfacet
  facet normal 0 -1 -0
    outer loop
      vertex 21 -5.8 9.375
      vertex 18 -5.8 5
      vertex 21 -5.8 5
    endloop
  endfacet
  facet normal 0 0 -1
    outer loop
      vertex -21 -5.8 -7.875
      vertex -14.5 -2.85 -7.875
      vertex -14.5 -5.8 -7.875
    endloop
  endfacet
  facet normal 0 0 -1
    outer loop
      vertex -14.5 -2.85 -7.875
      vertex -21 6.5 -7.875
      vertex -16 15.1603 -7.875
    endloop
  endfacet
  facet normal 0 0 -1
    outer loop
      vertex -16 15.1603 -7.875
      vertex -21 6.5 -7.875
      vertex -17.6913 13.9314 -7.875
    endloop
  endfacet
  facet normal 0 0 -1
    outer loop
      vertex -17.6913 13.9314 -7.875
      vertex -21 6.5 -7.875
      vertex -19.0902 12.3779 -7.875
    endloop
  endfacet
  facet normal 0 0 -1
    outer loop
      vertex -19.0902 12.3779 -7.875
      vertex -21 6.5 -7.875
      vertex -20.1355 10.5674 -7.875
    endloop
  endfacet
  facet normal -0 0 -1
    outer loop
      vertex -14.5 -2.85 -7.875
      vertex -21 -5.8 -7.875
      vertex -21 6.5 -7.875
    endloop
  endfacet
  facet normal 0 0 -1
    outer loop
      vertex -20.1355 10.5674 -7.875
      vertex -21 6.5 -7.875
      vertex -20.7815 8.57912 -7.875
    endloop
  endfacet
  facet normal 0 0 -1
    outer loop
      vertex 14.5 -2.85 -7.875
      vertex 21 6.5 -7.875
      vertex 21 -5.8 -7.875
    endloop
  endfacet
  facet normal -0 0 -1
    outer loop
      vertex 21 6.5 -7.875
      vertex 14.5 -2.85 -7.875
      vertex 20.7815 8.57912 -7.875
    endloop
  endfacet
  facet normal -0 0 -1
    outer loop
      vertex 20.7815 8.57912 -7.875
      vertex 14.5 -2.85 -7.875
      vertex 20.1355 10.5674 -7.875
    endloop
  endfacet
  facet normal -0 0 -1
    outer loop
      vertex 20.1355 10.5674 -7.875
      vertex 14.5 -2.85 -7.875
      vertex 19.0902 12.3779 -7.875
    endloop
  endfacet
  facet normal -0 0 -1
    outer loop
      vertex 19.0902 12.3779 -7.875
      vertex 14.5 -2.85 -7.875
      vertex 17.6913 13.9314 -7.875
    endloop
  endfacet
  facet normal 0 0 -1
    outer loop
      vertex 14.5 -2.85 -7.875
      vertex 21 -5.8 -7.875
      vertex 14.5 -5.8 -7.875
    endloop
  endfacet
  facet normal -0 0 -1
    outer loop
      vertex 17.6913 13.9314 -7.875
      vertex 14.5 -2.85 -7.875
      vertex 16 15.1603 -7.875
    endloop
  endfacet
  facet normal 0 0 -1
    outer loop
      vertex 14.5 -2.85 -7.875
      vertex 14.0902 16.0106 -7.875
      vertex 16 15.1603 -7.875
    endloop
  endfacet
  facet normal 0 0 -1
    outer loop
      vertex 14.5 -2.85 -7.875
      vertex 12.0453 16.4452 -7.875
      vertex 14.0902 16.0106 -7.875
    endloop
  endfacet
  facet normal 0 0 -1
    outer loop
      vertex 14.5 -2.85 -7.875
      vertex -2 6.5 -7.875
      vertex 12.0453 16.4452 -7.875
    endloop
  endfacet
  facet normal 0 0 -1
    outer loop
      vertex 14.5 -2.85 -7.875
      vertex -2.10926 5.46044 -7.875
      vertex -2 6.5 -7.875
    endloop
  endfacet
  facet normal 0 0 -1
    outer loop
      vertex 14.5 -2.85 -7.875
      vertex -2.43227 4.46632 -7.875
      vertex -2.10926 5.46044 -7.875
    endloop
  endfacet
  facet normal 0 0 -1
    outer loop
      vertex 14.5 -2.85 -7.875
      vertex -2.95491 3.56107 -7.875
      vertex -2.43227 4.46632 -7.875
    endloop
  endfacet
  facet normal 0 0 -1
    outer loop
      vertex 14.5 -2.85 -7.875
      vertex -3.65435 2.78428 -7.875
      vertex -2.95491 3.56107 -7.875
    endloop
  endfacet
  facet normal 0 0 -1
    outer loop
      vertex 14.5 -2.85 -7.875
      vertex -4.5 2.16987 -7.875
      vertex -3.65435 2.78428 -7.875
    endloop
  endfacet
  facet normal 0 0 -1
    outer loop
      vertex 14.5 -2.85 -7.875
      vertex -5.45491 1.74472 -7.875
      vertex -4.5 2.16987 -7.875
    endloop
  endfacet
  facet normal 0 0 -1
    outer loop
      vertex -14.5 -2.85 -7.875
      vertex -5.45491 1.74472 -7.875
      vertex 14.5 -2.85 -7.875
    endloop
  endfacet
  facet normal 0 0 -1
    outer loop
      vertex -5.45491 1.74472 -7.875
      vertex -14.5 -2.85 -7.875
      vertex -6.47736 1.52739 -7.875
    endloop
  endfacet
  facet normal 0 0 -1
    outer loop
      vertex -10.3457 10.2157 -7.875
      vertex -14.0902 16.0106 -7.875
      vertex -12.0453 16.4452 -7.875
    endloop
  endfacet
  facet normal 0 0 -1
    outer loop
      vertex -14.5 -2.85 -7.875
      vertex -12 6.5 -7.875
      vertex -11.8907 5.46044 -7.875
    endloop
  endfacet
  facet normal -0 0 -1
    outer loop
      vertex -6.47736 1.52739 -7.875
      vertex -14.5 -2.85 -7.875
      vertex -7.52264 1.52739 -7.875
    endloop
  endfacet
  facet normal 0 0 -1
    outer loop
      vertex -14.5 -2.85 -7.875
      vertex -8.54508 1.74472 -7.875
      vertex -7.52264 1.52739 -7.875
    endloop
  endfacet
  facet normal 0 0 -1
    outer loop
      vertex -14.5 -2.85 -7.875
      vertex -9.5 2.16987 -7.875
      vertex -8.54508 1.74472 -7.875
    endloop
  endfacet
  facet normal 0 0 -1
    outer loop
      vertex -14.5 -2.85 -7.875
      vertex -10.3457 2.78428 -7.875
      vertex -9.5 2.16987 -7.875
    endloop
  endfacet
  facet normal 0 0 -1
    outer loop
      vertex -14.5 -2.85 -7.875
      vertex -11.0451 3.56107 -7.875
      vertex -10.3457 2.78428 -7.875
    endloop
  endfacet
  facet normal 0 0 -1
    outer loop
      vertex -14.5 -2.85 -7.875
      vertex -11.5677 4.46632 -7.875
      vertex -11.0451 3.56107 -7.875
    endloop
  endfacet
  facet normal 0 0 -1
    outer loop
      vertex -14.5 -2.85 -7.875
      vertex -11.8907 5.46044 -7.875
      vertex -11.5677 4.46632 -7.875
    endloop
  endfacet
  facet normal -0 0 -1
    outer loop
      vertex -12 6.5 -7.875
      vertex -14.5 -2.85 -7.875
      vertex -16 15.1603 -7.875
    endloop
  endfacet
  facet normal 0 0 -1
    outer loop
      vertex -11.8907 7.53956 -7.875
      vertex -16 15.1603 -7.875
      vertex -14.0902 16.0106 -7.875
    endloop
  endfacet
  facet normal 0 0 -1
    outer loop
      vertex -2.10926 7.53956 -7.875
      vertex 12.0453 16.4452 -7.875
      vertex -2 6.5 -7.875
    endloop
  endfacet
  facet normal 0 0 -1
    outer loop
      vertex -2.43227 8.53368 -7.875
      vertex 12.0453 16.4452 -7.875
      vertex -2.10926 7.53956 -7.875
    endloop
  endfacet
  facet normal 0 0 -1
    outer loop
      vertex -2.95491 9.43893 -7.875
      vertex 12.0453 16.4452 -7.875
      vertex -2.43227 8.53368 -7.875
    endloop
  endfacet
  facet normal 0 0 -1
    outer loop
      vertex -3.65435 10.2157 -7.875
      vertex 12.0453 16.4452 -7.875
      vertex -2.95491 9.43893 -7.875
    endloop
  endfacet
  facet normal 0 0 -1
    outer loop
      vertex -4.5 10.8301 -7.875
      vertex 12.0453 16.4452 -7.875
      vertex -3.65435 10.2157 -7.875
    endloop
  endfacet
  facet normal 0 0 -1
    outer loop
      vertex -5.45491 11.2553 -7.875
      vertex 12.0453 16.4452 -7.875
      vertex -4.5 10.8301 -7.875
    endloop
  endfacet
  facet normal 0 0 -1
    outer loop
      vertex -12.0453 16.4452 -7.875
      vertex -5.45491 11.2553 -7.875
      vertex -6.47736 11.4726 -7.875
    endloop
  endfacet
  facet normal 0 0 -1
    outer loop
      vertex -12.0453 16.4452 -7.875
      vertex -6.47736 11.4726 -7.875
      vertex -7.52264 11.4726 -7.875
    endloop
  endfacet
  facet normal 0 0 -1
    outer loop
      vertex -12.0453 16.4452 -7.875
      vertex -7.52264 11.4726 -7.875
      vertex -8.54508 11.2553 -7.875
    endloop
  endfacet
  facet normal 0 0 -1
    outer loop
      vertex -5.45491 11.2553 -7.875
      vertex -12.0453 16.4452 -7.875
      vertex 12.0453 16.4452 -7.875
    endloop
  endfacet
  facet normal 0 0 -1
    outer loop
      vertex -9.5 10.8301 -7.875
      vertex -12.0453 16.4452 -7.875
      vertex -8.54508 11.2553 -7.875
    endloop
  endfacet
  facet normal 0 0 -1
    outer loop
      vertex -10.3457 10.2157 -7.875
      vertex -12.0453 16.4452 -7.875
      vertex -9.5 10.8301 -7.875
    endloop
  endfacet
  facet normal 0 0 -1
    outer loop
      vertex -14.0902 16.0106 -7.875
      vertex -10.3457 10.2157 -7.875
      vertex -11.0451 9.43893 -7.875
    endloop
  endfacet
  facet normal 0 0 -1
    outer loop
      vertex -14.0902 16.0106 -7.875
      vertex -11.0451 9.43893 -7.875
      vertex -11.5677 8.53368 -7.875
    endloop
  endfacet
  facet normal 0 0 -1
    outer loop
      vertex -14.0902 16.0106 -7.875
      vertex -11.5677 8.53368 -7.875
      vertex -11.8907 7.53956 -7.875
    endloop
  endfacet
  facet normal 0 0 -1
    outer loop
      vertex -16 15.1603 -7.875
      vertex -11.8907 7.53956 -7.875
      vertex -12 6.5 -7.875
    endloop
  endfacet
  facet normal 0 1 0
    outer loop
      vertex 21 -1 9.375
      vertex 14.5 -1 1.375
      vertex 14.5 -1 9.375
    endloop
  endfacet
  facet normal 0 1 0
    outer loop
      vertex -7 -1 -5.875
      vertex 14.5 -1 1.375
      vertex 21 -1 -5.875
    endloop
  endfacet
  facet normal 0 1 -0
    outer loop
      vertex 21 -1 -5.875
      vertex 14.5 -1 1.375
      vertex 21 -1 9.375
    endloop
  endfacet
  facet normal 0 1 -0
    outer loop
      vertex -6.5 -1 1.375
      vertex -7 -1 5.125
      vertex -6.5 -1 5.125
    endloop
  endfacet
  facet normal 0 1 0
    outer loop
      vertex -6.5 -1 1.375
      vertex -7 -1 -5.875
      vertex -7 -1 5.125
    endloop
  endfacet
  facet normal 0 1 0
    outer loop
      vertex 14.5 -1 1.375
      vertex -7 -1 -5.875
      vertex -6.5 -1 1.375
    endloop
  endfacet
  facet normal 0 1 0
    outer loop
      vertex -13 -1 5.125
      vertex -13 -1 -5.875
      vertex -14.5 -1 5.125
    endloop
  endfacet
  facet normal 0 1 -0
    outer loop
      vertex -14.5 -1 5.125
      vertex -21 -1 9.375
      vertex -14.5 -1 9.375
    endloop
  endfacet
  facet normal 0 1 0
    outer loop
      vertex -21 -1 -5.875
      vertex -14.5 -1 5.125
      vertex -13 -1 -5.875
    endloop
  endfacet
  facet normal 0 1 0
    outer loop
      vertex -14.5 -1 5.125
      vertex -21 -1 -5.875
      vertex -21 -1 9.375
    endloop
  endfacet
  facet normal 1 -0 0
    outer loop
      vertex -7 -1 5.125
      vertex -7 1.52739 -5.875
      vertex -7 1.52739 5.125
    endloop
  endfacet
  facet normal 1 0 0
    outer loop
      vertex -7 1.52739 -5.875
      vertex -7 -1 5.125
      vertex -7 -1 -5.875
    endloop
  endfacet
  facet normal 0 0 1
    outer loop
      vertex 12.0453 16.4452 -5.875
      vertex -2.10926 7.53956 -5.875
      vertex -2 6.5 -5.875
    endloop
  endfacet
  facet normal 0 0 1
    outer loop
      vertex 12.0453 16.4452 -5.875
      vertex -2.43227 8.53368 -5.875
      vertex -2.10926 7.53956 -5.875
    endloop
  endfacet
  facet normal 0 0 1
    outer loop
      vertex 12.0453 16.4452 -5.875
      vertex -2.95491 9.43893 -5.875
      vertex -2.43227 8.53368 -5.875
    endloop
  endfacet
  facet normal 0 0 1
    outer loop
      vertex 12.0453 16.4452 -5.875
      vertex -3.65435 10.2157 -5.875
      vertex -2.95491 9.43893 -5.875
    endloop
  endfacet
  facet normal 0 0 1
    outer loop
      vertex 12.0453 16.4452 -5.875
      vertex -4.5 10.8301 -5.875
      vertex -3.65435 10.2157 -5.875
    endloop
  endfacet
  facet normal -0 0 1
    outer loop
      vertex -8 16.4452 -5.875
      vertex -4.5 10.8301 -5.875
      vertex 12.0453 16.4452 -5.875
    endloop
  endfacet
  facet normal 0 0 1
    outer loop
      vertex -4.5 10.8301 -5.875
      vertex -8 16.4452 -5.875
      vertex -5.45491 11.2553 -5.875
    endloop
  endfacet
  facet normal 0 0 1
    outer loop
      vertex -5.45491 11.2553 -5.875
      vertex -8 16.4452 -5.875
      vertex -6.47736 11.4726 -5.875
    endloop
  endfacet
  facet normal 0 0 1
    outer loop
      vertex -6.47736 11.4726 -5.875
      vertex -8 16.4452 -5.875
      vertex -7.52264 11.4726 -5.875
    endloop
  endfacet
  facet normal 0 0 1
    outer loop
      vertex -7.52264 11.4726 -5.875
      vertex -8 16.4452 -5.875
      vertex -8 11.3711 -5.875
    endloop
  endfacet
  facet normal 0 0 1
    outer loop
      vertex 12.0453 16.4452 -5.875
      vertex 21 6.5 -5.875
      vertex 20.7815 8.57912 -5.875
    endloop
  endfacet
  facet normal 0 0 1
    outer loop
      vertex 12.0453 16.4452 -5.875
      vertex 20.7815 8.57912 -5.875
      vertex 20.1355 10.5674 -5.875
    endloop
  endfacet
  facet normal 0 0 1
    outer loop
      vertex 12.0453 16.4452 -5.875
      vertex 20.1355 10.5674 -5.875
      vertex 19.0902 12.3779 -5.875
    endloop
  endfacet
  facet normal 0 0 1
    outer loop
      vertex 12.0453 16.4452 -5.875
      vertex 19.0902 12.3779 -5.875
      vertex 17.6913 13.9314 -5.875
    endloop
  endfacet
  facet normal 0 0 1
    outer loop
      vertex 12.0453 16.4452 -5.875
      vertex 17.6913 13.9314 -5.875
      vertex 16 15.1603 -5.875
    endloop
  endfacet
  facet normal 0 0 1
    outer loop
      vertex 12.0453 16.4452 -5.875
      vertex 16 15.1603 -5.875
      vertex 14.0902 16.0106 -5.875
    endloop
  endfacet
  facet normal 0 0 1
    outer loop
      vertex 21 6.5 -5.875
      vertex 12.0453 16.4452 -5.875
      vertex -2 6.5 -5.875
    endloop
  endfacet
  facet normal 0 0 1
    outer loop
      vertex 21 6.5 -5.875
      vertex -2 6.5 -5.875
      vertex -2.10926 5.46044 -5.875
    endloop
  endfacet
  facet normal 0 0 1
    outer loop
      vertex 21 6.5 -5.875
      vertex -2.10926 5.46044 -5.875
      vertex 21 -1 -5.875
    endloop
  endfacet
  facet normal -0 0 1
    outer loop
      vertex -2.43227 4.46632 -5.875
      vertex 21 -1 -5.875
      vertex -2.10926 5.46044 -5.875
    endloop
  endfacet
  facet normal -0 0 1
    outer loop
      vertex -2.95491 3.56107 -5.875
      vertex 21 -1 -5.875
      vertex -2.43227 4.46632 -5.875
    endloop
  endfacet
  facet normal -0 0 1
    outer loop
      vertex -3.65435 2.78428 -5.875
      vertex 21 -1 -5.875
      vertex -2.95491 3.56107 -5.875
    endloop
  endfacet
  facet normal 0 0 1
    outer loop
      vertex -7 -1 -5.875
      vertex -3.65435 2.78428 -5.875
      vertex -4.5 2.16987 -5.875
    endloop
  endfacet
  facet normal 0 0 1
    outer loop
      vertex -7 -1 -5.875
      vertex -4.5 2.16987 -5.875
      vertex -5.45491 1.74472 -5.875
    endloop
  endfacet
  facet normal 0 0 1
    outer loop
      vertex -7 -1 -5.875
      vertex -5.45491 1.74472 -5.875
      vertex -6.47736 1.52739 -5.875
    endloop
  endfacet
  facet normal 0 0 1
    outer loop
      vertex -7 -1 -5.875
      vertex -6.47736 1.52739 -5.875
      vertex -7 1.52739 -5.875
    endloop
  endfacet
  facet normal 0 0 1
    outer loop
      vertex -3.65435 2.78428 -5.875
      vertex -7 -1 -5.875
      vertex 21 -1 -5.875
    endloop
  endfacet
  facet normal 1 -0 0
    outer loop
      vertex -8 11.3711 5.125
      vertex -8 16.4452 -5.875
      vertex -8 16.4452 5.125
    endloop
  endfacet
  facet normal 1 0 0
    outer loop
      vertex -8 16.4452 -5.875
      vertex -8 11.3711 5.125
      vertex -8 11.3711 -5.875
    endloop
  endfacet
  facet normal -1 0 0
    outer loop
      vertex -13 -1 -5.875
      vertex -13 16.2423 5.125
      vertex -13 16.2423 -5.875
    endloop
  endfacet
  facet normal -1 -0 0
    outer loop
      vertex -13 16.2423 5.125
      vertex -13 -1 -5.875
      vertex -13 -1 5.125
    endloop
  endfacet
  facet normal 0 0 1
    outer loop
      vertex -16 15.1603 -5.875
      vertex -13 16.2423 -5.875
      vertex -14.0902 16.0106 -5.875
    endloop
  endfacet
  facet normal 0 0 1
    outer loop
      vertex -13 16.2423 -5.875
      vertex -16 15.1603 -5.875
      vertex -13 -1 -5.875
    endloop
  endfacet
  facet normal -0 0 1
    outer loop
      vertex -17.6913 13.9314 -5.875
      vertex -13 -1 -5.875
      vertex -16 15.1603 -5.875
    endloop
  endfacet
  facet normal -0 0 1
    outer loop
      vertex -19.0902 12.3779 -5.875
      vertex -13 -1 -5.875
      vertex -17.6913 13.9314 -5.875
    endloop
  endfacet
  facet normal -0 0 1
    outer loop
      vertex -20.1355 10.5674 -5.875
      vertex -13 -1 -5.875
      vertex -19.0902 12.3779 -5.875
    endloop
  endfacet
  facet normal -0 0 1
    outer loop
      vertex -20.7815 8.57912 -5.875
      vertex -13 -1 -5.875
      vertex -20.1355 10.5674 -5.875
    endloop
  endfacet
  facet normal -0 0 1
    outer loop
      vertex -21 6.5 -5.875
      vertex -13 -1 -5.875
      vertex -20.7815 8.57912 -5.875
    endloop
  endfacet
  facet normal 0 0 1
    outer loop
      vertex -13 -1 -5.875
      vertex -21 6.5 -5.875
      vertex -21 -1 -5.875
    endloop
  endfacet
  facet normal -0 0 1
    outer loop
      vertex -9.02185 13.5829 5.125
      vertex -8 11.3711 5.125
      vertex -8 16.4452 5.125
    endloop
  endfacet
  facet normal -0 0 1
    outer loop
      vertex -9.02185 13.1671 5.125
      vertex -8 11.3711 5.125
      vertex -9 13.375 5.125
    endloop
  endfacet
  facet normal 0 0 1
    outer loop
      vertex -8 11.3711 5.125
      vertex -9.02185 13.5829 5.125
      vertex -9 13.375 5.125
    endloop
  endfacet
  facet normal 0 0 1
    outer loop
      vertex -8 16.4452 5.125
      vertex -9.08645 13.7817 5.125
      vertex -9.02185 13.5829 5.125
    endloop
  endfacet
  facet normal 0 0 1
    outer loop
      vertex -8 16.4452 5.125
      vertex -9.19098 13.9628 5.125
      vertex -9.08645 13.7817 5.125
    endloop
  endfacet
  facet normal 0 0 1
    outer loop
      vertex -8 16.4452 5.125
      vertex -9.33087 14.1181 5.125
      vertex -9.19098 13.9628 5.125
    endloop
  endfacet
  facet normal 0 0 1
    outer loop
      vertex -8 16.4452 5.125
      vertex -9.5 14.241 5.125
      vertex -9.33087 14.1181 5.125
    endloop
  endfacet
  facet normal 0 0 1
    outer loop
      vertex -8 16.4452 5.125
      vertex -9.69098 14.3261 5.125
      vertex -9.5 14.241 5.125
    endloop
  endfacet
  facet normal 0 0 1
    outer loop
      vertex -8 16.4452 5.125
      vertex -9.89547 14.3695 5.125
      vertex -9.69098 14.3261 5.125
    endloop
  endfacet
  facet normal 0 0 1
    outer loop
      vertex -8 16.4452 5.125
      vertex -10.1045 14.3695 5.125
      vertex -9.89547 14.3695 5.125
    endloop
  endfacet
  facet normal -0 0 1
    outer loop
      vertex -12.0453 16.4452 5.125
      vertex -10.1045 14.3695 5.125
      vertex -8 16.4452 5.125
    endloop
  endfacet
  facet normal 0 0 1
    outer loop
      vertex -10.1045 14.3695 5.125
      vertex -12.0453 16.4452 5.125
      vertex -10.309 14.3261 5.125
    endloop
  endfacet
  facet normal 0 0 1
    outer loop
      vertex -10.309 14.3261 5.125
      vertex -12.0453 16.4452 5.125
      vertex -10.5 14.241 5.125
    endloop
  endfacet
  facet normal 0 0 1
    outer loop
      vertex -10.9135 12.9683 5.125
      vertex -11.5677 8.53368 5.125
      vertex -11.0451 9.43893 5.125
    endloop
  endfacet
  facet normal 0 0 1
    outer loop
      vertex -13 16.2423 5.125
      vertex -11 13.375 5.125
      vertex -10.9781 13.5829 5.125
    endloop
  endfacet
  facet normal 0 0 1
    outer loop
      vertex -10.9781 13.1671 5.125
      vertex -13 16.2423 5.125
      vertex -11.5677 8.53368 5.125
    endloop
  endfacet
  facet normal 0 0 1
    outer loop
      vertex -11.5677 8.53368 5.125
      vertex -13 16.2423 5.125
      vertex -11.8907 7.53956 5.125
    endloop
  endfacet
  facet normal 0 0 1
    outer loop
      vertex -10.9135 13.7817 5.125
      vertex -13 16.2423 5.125
      vertex -10.9781 13.5829 5.125
    endloop
  endfacet
  facet normal 0 0 1
    outer loop
      vertex -10.809 13.9628 5.125
      vertex -13 16.2423 5.125
      vertex -10.9135 13.7817 5.125
    endloop
  endfacet
  facet normal -0 0 1
    outer loop
      vertex -13 16.2423 5.125
      vertex -10.809 13.9628 5.125
      vertex -12.0453 16.4452 5.125
    endloop
  endfacet
  facet normal 0 0 1
    outer loop
      vertex -10.6691 14.1181 5.125
      vertex -12.0453 16.4452 5.125
      vertex -10.809 13.9628 5.125
    endloop
  endfacet
  facet normal 0 0 1
    outer loop
      vertex -10.5 14.241 5.125
      vertex -12.0453 16.4452 5.125
      vertex -10.6691 14.1181 5.125
    endloop
  endfacet
  facet normal -0 0 1
    outer loop
      vertex -9.08645 12.9683 5.125
      vertex -8 11.3711 5.125
      vertex -9.02185 13.1671 5.125
    endloop
  endfacet
  facet normal -0 0 1
    outer loop
      vertex -9.19098 12.7872 5.125
      vertex -8 11.3711 5.125
      vertex -9.08645 12.9683 5.125
    endloop
  endfacet
  facet normal 0 0 1
    outer loop
      vertex -8 11.3711 5.125
      vertex -9.19098 12.7872 5.125
      vertex -8.54508 11.2553 5.125
    endloop
  endfacet
  facet normal -0 0 1
    outer loop
      vertex -9.33087 12.6319 5.125
      vertex -8.54508 11.2553 5.125
      vertex -9.19098 12.7872 5.125
    endloop
  endfacet
  facet normal -0 0 1
    outer loop
      vertex -9.5 12.509 5.125
      vertex -8.54508 11.2553 5.125
      vertex -9.33087 12.6319 5.125
    endloop
  endfacet
  facet normal -0 0 1
    outer loop
      vertex -9.69098 12.4239 5.125
      vertex -8.54508 11.2553 5.125
      vertex -9.5 12.509 5.125
    endloop
  endfacet
  facet normal 0 0 1
    outer loop
      vertex -8.54508 11.2553 5.125
      vertex -9.69098 12.4239 5.125
      vertex -9.5 10.8301 5.125
    endloop
  endfacet
  facet normal -0 0 1
    outer loop
      vertex -9.89547 12.3805 5.125
      vertex -9.5 10.8301 5.125
      vertex -9.69098 12.4239 5.125
    endloop
  endfacet
  facet normal -0 0 1
    outer loop
      vertex -10.1045 12.3805 5.125
      vertex -9.5 10.8301 5.125
      vertex -9.89547 12.3805 5.125
    endloop
  endfacet
  facet normal 0 0 1
    outer loop
      vertex -10.309 12.4239 5.125
      vertex -9.5 10.8301 5.125
      vertex -10.1045 12.3805 5.125
    endloop
  endfacet
  facet normal 0 0 1
    outer loop
      vertex -10.309 12.4239 5.125
      vertex -10.3457 10.2157 5.125
      vertex -9.5 10.8301 5.125
    endloop
  endfacet
  facet normal 0 0 1
    outer loop
      vertex -10.5 12.509 5.125
      vertex -10.3457 10.2157 5.125
      vertex -10.309 12.4239 5.125
    endloop
  endfacet
  facet normal 0 0 1
    outer loop
      vertex -10.6691 12.6319 5.125
      vertex -10.3457 10.2157 5.125
      vertex -10.5 12.509 5.125
    endloop
  endfacet
  facet normal 0 0 1
    outer loop
      vertex -11.0451 9.43893 5.125
      vertex -10.6691 12.6319 5.125
      vertex -10.809 12.7872 5.125
    endloop
  endfacet
  facet normal 0 0 1
    outer loop
      vertex -11.0451 9.43893 5.125
      vertex -10.809 12.7872 5.125
      vertex -10.9135 12.9683 5.125
    endloop
  endfacet
  facet normal 0 0 1
    outer loop
      vertex -11.5677 8.53368 5.125
      vertex -10.9135 12.9683 5.125
      vertex -10.9781 13.1671 5.125
    endloop
  endfacet
  facet normal 0 0 1
    outer loop
      vertex -10.6691 12.6319 5.125
      vertex -11.0451 9.43893 5.125
      vertex -10.3457 10.2157 5.125
    endloop
  endfacet
  facet normal 0 0 1
    outer loop
      vertex -13 16.2423 5.125
      vertex -10.9781 13.1671 5.125
      vertex -11 13.375 5.125
    endloop
  endfacet
  facet normal 0 0 1
    outer loop
      vertex -7 1.52739 5.125
      vertex -7.52264 1.52739 5.125
      vertex -7 -1 5.125
    endloop
  endfacet
  facet normal -0 0 1
    outer loop
      vertex -7 -1 5.125
      vertex -6.5 -2.85 5.125
      vertex -6.5 -1 5.125
    endloop
  endfacet
  facet normal 0 0 1
    outer loop
      vertex -9.19098 0.212785 5.125
      vertex -7.52264 1.52739 5.125
      vertex -8.54508 1.74472 5.125
    endloop
  endfacet
  facet normal 0 -0 1
    outer loop
      vertex -9.02185 -0.167088 5.125
      vertex -7.52264 1.52739 5.125
      vertex -9.08645 0.0317364 5.125
    endloop
  endfacet
  facet normal -0 -0 1
    outer loop
      vertex -9 -0.375 5.125
      vertex -7 -1 5.125
      vertex -9.02185 -0.167088 5.125
    endloop
  endfacet
  facet normal -0 0 1
    outer loop
      vertex -9.08645 -0.781736 5.125
      vertex -7 -1 5.125
      vertex -9.02185 -0.582911 5.125
    endloop
  endfacet
  facet normal -0 0 1
    outer loop
      vertex -9.19098 -0.962785 5.125
      vertex -7 -1 5.125
      vertex -9.08645 -0.781736 5.125
    endloop
  endfacet
  facet normal 0 0 1
    outer loop
      vertex -9.33087 -1.11814 5.125
      vertex -7 -1 5.125
      vertex -9.19098 -0.962785 5.125
    endloop
  endfacet
  facet normal 0 0 1
    outer loop
      vertex -7 -1 5.125
      vertex -9.33087 -1.11814 5.125
      vertex -6.5 -2.85 5.125
    endloop
  endfacet
  facet normal -0 0 1
    outer loop
      vertex -9.5 -1.24102 5.125
      vertex -6.5 -2.85 5.125
      vertex -9.33087 -1.11814 5.125
    endloop
  endfacet
  facet normal -0 0 1
    outer loop
      vertex -9.69098 -1.32606 5.125
      vertex -6.5 -2.85 5.125
      vertex -9.5 -1.24102 5.125
    endloop
  endfacet
  facet normal -0 0 1
    outer loop
      vertex -9.89547 -1.36952 5.125
      vertex -6.5 -2.85 5.125
      vertex -9.69098 -1.32606 5.125
    endloop
  endfacet
  facet normal -0 0 1
    outer loop
      vertex -10.1045 -1.36952 5.125
      vertex -6.5 -2.85 5.125
      vertex -9.89547 -1.36952 5.125
    endloop
  endfacet
  facet normal 0 0 1
    outer loop
      vertex -14.5 -2.85 5.125
      vertex -10.1045 -1.36952 5.125
      vertex -10.309 -1.32606 5.125
    endloop
  endfacet
  facet normal 0 0 1
    outer loop
      vertex -10.9135 0.0317364 5.125
      vertex -13 -1 5.125
      vertex -10.9781 -0.167088 5.125
    endloop
  endfacet
  facet normal 0 0 1
    outer loop
      vertex -10.9781 -0.167088 5.125
      vertex -13 -1 5.125
      vertex -11 -0.375 5.125
    endloop
  endfacet
  facet normal 0 0 1
    outer loop
      vertex -13 -1 5.125
      vertex -11.5677 4.46632 5.125
      vertex -11.8907 5.46044 5.125
    endloop
  endfacet
  facet normal 0 0 1
    outer loop
      vertex -11.8907 7.53956 5.125
      vertex -13 16.2423 5.125
      vertex -12 6.5 5.125
    endloop
  endfacet
  facet normal 0 0 1
    outer loop
      vertex -13 -1 5.125
      vertex -12 6.5 5.125
      vertex -13 16.2423 5.125
    endloop
  endfacet
  facet normal 0 0 1
    outer loop
      vertex -13 -1 5.125
      vertex -11.8907 5.46044 5.125
      vertex -12 6.5 5.125
    endloop
  endfacet
  facet normal 0 0 1
    outer loop
      vertex -11 -0.375 5.125
      vertex -13 -1 5.125
      vertex -10.9781 -0.582911 5.125
    endloop
  endfacet
  facet normal 0 0 1
    outer loop
      vertex -13 -1 5.125
      vertex -10.9135 -0.781736 5.125
      vertex -10.9781 -0.582911 5.125
    endloop
  endfacet
  facet normal 0 0 1
    outer loop
      vertex -13 -1 5.125
      vertex -10.809 -0.962785 5.125
      vertex -10.9135 -0.781736 5.125
    endloop
  endfacet
  facet normal -0 0 1
    outer loop
      vertex -13 -1 5.125
      vertex -10.6691 -1.11814 5.125
      vertex -10.809 -0.962785 5.125
    endloop
  endfacet
  facet normal 0 0 1
    outer loop
      vertex -13 -1 5.125
      vertex -10.5 -1.24102 5.125
      vertex -10.6691 -1.11814 5.125
    endloop
  endfacet
  facet normal 0 0 1
    outer loop
      vertex -14.5 -2.85 5.125
      vertex -10.5 -1.24102 5.125
      vertex -13 -1 5.125
    endloop
  endfacet
  facet normal 0 0 1
    outer loop
      vertex -10.5 -1.24102 5.125
      vertex -14.5 -2.85 5.125
      vertex -10.309 -1.32606 5.125
    endloop
  endfacet
  facet normal 0 0 1
    outer loop
      vertex -14.5 -2.85 5.125
      vertex -13 -1 5.125
      vertex -14.5 -1 5.125
    endloop
  endfacet
  facet normal 0 0 1
    outer loop
      vertex -10.1045 -1.36952 5.125
      vertex -14.5 -2.85 5.125
      vertex -6.5 -2.85 5.125
    endloop
  endfacet
  facet normal -0 0 1
    outer loop
      vertex -9.02185 -0.582911 5.125
      vertex -7 -1 5.125
      vertex -9 -0.375 5.125
    endloop
  endfacet
  facet normal 0 0 1
    outer loop
      vertex -7.52264 1.52739 5.125
      vertex -9.02185 -0.167088 5.125
      vertex -7 -1 5.125
    endloop
  endfacet
  facet normal 0 0 1
    outer loop
      vertex -7.52264 1.52739 5.125
      vertex -9.19098 0.212785 5.125
      vertex -9.08645 0.0317364 5.125
    endloop
  endfacet
  facet normal 0 0 1
    outer loop
      vertex -8.54508 1.74472 5.125
      vertex -9.33087 0.368144 5.125
      vertex -9.19098 0.212785 5.125
    endloop
  endfacet
  facet normal 0 0 1
    outer loop
      vertex -9.69098 0.576056 5.125
      vertex -8.54508 1.74472 5.125
      vertex -9.5 2.16987 5.125
    endloop
  endfacet
  facet normal 0 0 1
    outer loop
      vertex -8.54508 1.74472 5.125
      vertex -9.5 0.491025 5.125
      vertex -9.33087 0.368144 5.125
    endloop
  endfacet
  facet normal 0 0 1
    outer loop
      vertex -8.54508 1.74472 5.125
      vertex -9.69098 0.576056 5.125
      vertex -9.5 0.491025 5.125
    endloop
  endfacet
  facet normal 0 0 1
    outer loop
      vertex -9.5 2.16987 5.125
      vertex -9.89547 0.619521 5.125
      vertex -9.69098 0.576056 5.125
    endloop
  endfacet
  facet normal 0 0 1
    outer loop
      vertex -9.5 2.16987 5.125
      vertex -10.1045 0.619521 5.125
      vertex -9.89547 0.619521 5.125
    endloop
  endfacet
  facet normal 0 0 1
    outer loop
      vertex -9.5 2.16987 5.125
      vertex -10.309 0.576056 5.125
      vertex -10.1045 0.619521 5.125
    endloop
  endfacet
  facet normal 0 0 1
    outer loop
      vertex -10.3457 2.78428 5.125
      vertex -10.309 0.576056 5.125
      vertex -9.5 2.16987 5.125
    endloop
  endfacet
  facet normal 0 0 1
    outer loop
      vertex -10.3457 2.78428 5.125
      vertex -10.5 0.491025 5.125
      vertex -10.309 0.576056 5.125
    endloop
  endfacet
  facet normal 0 0 1
    outer loop
      vertex -10.3457 2.78428 5.125
      vertex -10.6691 0.368144 5.125
      vertex -10.5 0.491025 5.125
    endloop
  endfacet
  facet normal 0 0 1
    outer loop
      vertex -11.0451 3.56107 5.125
      vertex -10.6691 0.368144 5.125
      vertex -10.3457 2.78428 5.125
    endloop
  endfacet
  facet normal 0 0 1
    outer loop
      vertex -10.6691 0.368144 5.125
      vertex -11.0451 3.56107 5.125
      vertex -10.809 0.212785 5.125
    endloop
  endfacet
  facet normal 0 0 1
    outer loop
      vertex -13 -1 5.125
      vertex -10.809 0.212785 5.125
      vertex -11.0451 3.56107 5.125
    endloop
  endfacet
  facet normal 0 0 1
    outer loop
      vertex -10.809 0.212785 5.125
      vertex -13 -1 5.125
      vertex -10.9135 0.0317364 5.125
    endloop
  endfacet
  facet normal 0 0 1
    outer loop
      vertex -13 -1 5.125
      vertex -11.0451 3.56107 5.125
      vertex -11.5677 4.46632 5.125
    endloop
  endfacet
  facet normal -1 0 0
    outer loop
      vertex 14.5 -2.85 -7.875
      vertex 14.5 -5.8 -7.875
      vertex 14.5 -2.85 1.375
    endloop
  endfacet
  facet normal -1 0 0
    outer loop
      vertex 14.5 -2.85 1.375
      vertex 14.5 -1 9.375
      vertex 14.5 -1 1.375
    endloop
  endfacet
  facet normal -1 0 0
    outer loop
      vertex 14.5 -5.8 9.375
      vertex 14.5 -2.85 1.375
      vertex 14.5 -5.8 -7.875
    endloop
  endfacet
  facet normal -1 0 0
    outer loop
      vertex 14.5 -2.85 1.375
      vertex 14.5 -5.8 9.375
      vertex 14.5 -1 9.375
    endloop
  endfacet
  facet normal 0 -1 0
    outer loop
      vertex -14.5 -2.85 5.125
      vertex -6.5 -2.85 1.375
      vertex -6.5 -2.85 5.125
    endloop
  endfacet
  facet normal 0 -1 0
    outer loop
      vertex -14.5 -2.85 -7.875
      vertex -6.5 -2.85 1.375
      vertex -14.5 -2.85 5.125
    endloop
  endfacet
  facet normal 0 -1 0
    outer loop
      vertex 14.5 -2.85 -7.875
      vertex -6.5 -2.85 1.375
      vertex -14.5 -2.85 -7.875
    endloop
  endfacet
  facet normal 0 -1 0
    outer loop
      vertex -6.5 -2.85 1.375
      vertex 14.5 -2.85 -7.875
      vertex 14.5 -2.85 1.375
    endloop
  endfacet
  facet normal 1 0 0
    outer loop
      vertex -14.5 -1 9.375
      vertex -14.5 -2.85 5.125
      vertex -14.5 -1 5.125
    endloop
  endfacet
  facet normal 1 -0 0
    outer loop
      vertex -14.5 -5.8 9.375
      vertex -14.5 -2.85 5.125
      vertex -14.5 -1 9.375
    endloop
  endfacet
  facet normal 1 0 0
    outer loop
      vertex -14.5 -5.8 -7.875
      vertex -14.5 -2.85 5.125
      vertex -14.5 -5.8 9.375
    endloop
  endfacet
  facet normal 1 0 0
    outer loop
      vertex -14.5 -2.85 5.125
      vertex -14.5 -5.8 -7.875
      vertex -14.5 -2.85 -7.875
    endloop
  endfacet
  facet normal 1 -0 0
    outer loop
      vertex -6.5 -2.85 5.125
      vertex -6.5 -1 1.375
      vertex -6.5 -1 5.125
    endloop
  endfacet
  facet normal 1 0 0
    outer loop
      vertex -6.5 -1 1.375
      vertex -6.5 -2.85 5.125
      vertex -6.5 -2.85 1.375
    endloop
  endfacet
  facet normal -0 0 1
    outer loop
      vertex -6.5 -1 1.375
      vertex 14.5 -2.85 1.375
      vertex 14.5 -1 1.375
    endloop
  endfacet
  facet normal 0 0 1
    outer loop
      vertex 14.5 -2.85 1.375
      vertex -6.5 -1 1.375
      vertex -6.5 -2.85 1.375
    endloop
  endfacet
  facet normal 0.994518 0.104564 0
    outer loop
      vertex -11.8907 5.46044 5.125
      vertex -12 6.5 -7.875
      vertex -12 6.5 5.125
    endloop
  endfacet
  facet normal 0.994518 0.104564 0
    outer loop
      vertex -12 6.5 -7.875
      vertex -11.8907 5.46044 5.125
      vertex -11.8907 5.46044 -7.875
    endloop
  endfacet
  facet normal -0.951056 -0.309018 0
    outer loop
      vertex -2.10926 7.53956 -7.875
      vertex -2.43227 8.53368 -5.875
      vertex -2.43227 8.53368 -7.875
    endloop
  endfacet
  facet normal -0.951056 -0.309018 0
    outer loop
      vertex -2.43227 8.53368 -5.875
      vertex -2.10926 7.53956 -7.875
      vertex -2.10926 7.53956 -5.875
    endloop
  endfacet
  facet normal -0.994522 -0.104526 0
    outer loop
      vertex -2 6.5 -7.875
      vertex -2.10926 7.53956 -5.875
      vertex -2.10926 7.53956 -7.875
    endloop
  endfacet
  facet normal -0.994522 -0.104526 0
    outer loop
      vertex -2.10926 7.53956 -5.875
      vertex -2 6.5 -7.875
      vertex -2 6.5 -5.875
    endloop
  endfacet
  facet normal 0.951059 -0.309009 0
    outer loop
      vertex -11.8907 7.53956 5.125
      vertex -11.5677 8.53368 -7.875
      vertex -11.5677 8.53368 5.125
    endloop
  endfacet
  facet normal 0.951059 -0.309009 0
    outer loop
      vertex -11.5677 8.53368 -7.875
      vertex -11.8907 7.53956 5.125
      vertex -11.8907 7.53956 -7.875
    endloop
  endfacet
  facet normal 0.743148 -0.669127 0
    outer loop
      vertex -11.0451 9.43893 5.125
      vertex -10.3457 10.2157 -7.875
      vertex -10.3457 10.2157 5.125
    endloop
  endfacet
  facet normal 0.743148 -0.669127 0
    outer loop
      vertex -10.3457 10.2157 -7.875
      vertex -11.0451 9.43893 5.125
      vertex -11.0451 9.43893 -7.875
    endloop
  endfacet
  facet normal -0.587791 0.809013 0
    outer loop
      vertex -3.65435 2.78428 -7.875
      vertex -4.5 2.16987 -5.875
      vertex -3.65435 2.78428 -5.875
    endloop
  endfacet
  facet normal -0.587791 0.809013 0
    outer loop
      vertex -4.5 2.16987 -5.875
      vertex -3.65435 2.78428 -7.875
      vertex -4.5 2.16987 -7.875
    endloop
  endfacet
  facet normal -0.866028 -0.499995 0
    outer loop
      vertex -2.43227 8.53368 -7.875
      vertex -2.95491 9.43893 -5.875
      vertex -2.95491 9.43893 -7.875
    endloop
  endfacet
  facet normal -0.866028 -0.499995 0
    outer loop
      vertex -2.95491 9.43893 -5.875
      vertex -2.43227 8.53368 -7.875
      vertex -2.43227 8.53368 -5.875
    endloop
  endfacet
  facet normal 0.994518 -0.104564 0
    outer loop
      vertex -12 6.5 5.125
      vertex -11.8907 7.53956 -7.875
      vertex -11.8907 7.53956 5.125
    endloop
  endfacet
  facet normal 0.994518 -0.104564 0
    outer loop
      vertex -11.8907 7.53956 -7.875
      vertex -12 6.5 5.125
      vertex -12 6.5 -7.875
    endloop
  endfacet
  facet normal -0.743129 -0.669148 0
    outer loop
      vertex -2.95491 9.43893 -7.875
      vertex -3.65435 10.2157 -5.875
      vertex -3.65435 10.2157 -7.875
    endloop
  endfacet
  facet normal -0.743129 -0.669148 0
    outer loop
      vertex -3.65435 10.2157 -5.875
      vertex -2.95491 9.43893 -7.875
      vertex -2.95491 9.43893 -5.875
    endloop
  endfacet
  facet normal -0.207886 -0.978153 0
    outer loop
      vertex -6.47736 11.4726 -7.875
      vertex -5.45491 11.2553 -5.875
      vertex -6.47736 11.4726 -5.875
    endloop
  endfacet
  facet normal -0.207886 -0.978153 -0
    outer loop
      vertex -5.45491 11.2553 -5.875
      vertex -6.47736 11.4726 -7.875
      vertex -5.45491 11.2553 -7.875
    endloop
  endfacet
  facet normal -0.406774 -0.913529 0
    outer loop
      vertex -5.45491 11.2553 -7.875
      vertex -4.5 10.8301 -5.875
      vertex -5.45491 11.2553 -5.875
    endloop
  endfacet
  facet normal -0.406774 -0.913529 -0
    outer loop
      vertex -4.5 10.8301 -5.875
      vertex -5.45491 11.2553 -7.875
      vertex -4.5 10.8301 -7.875
    endloop
  endfacet
  facet normal 0.40677 -0.91353 0
    outer loop
      vertex -9.5 10.8301 -7.875
      vertex -8.54508 11.2553 5.125
      vertex -9.5 10.8301 5.125
    endloop
  endfacet
  facet normal 0.40677 -0.91353 0
    outer loop
      vertex -8.54508 11.2553 5.125
      vertex -9.5 10.8301 -7.875
      vertex -8.54508 11.2553 -7.875
    endloop
  endfacet
  facet normal 0.866045 0.499967 0
    outer loop
      vertex -11.0451 3.56107 5.125
      vertex -11.5677 4.46632 -7.875
      vertex -11.5677 4.46632 5.125
    endloop
  endfacet
  facet normal 0.866045 0.499967 0
    outer loop
      vertex -11.5677 4.46632 -7.875
      vertex -11.0451 3.56107 5.125
      vertex -11.0451 3.56107 -7.875
    endloop
  endfacet
  facet normal 0.207808 -0.97817 0
    outer loop
      vertex -8.54508 11.2553 5.125
      vertex -8 11.3711 -5.875
      vertex -8 11.3711 5.125
    endloop
  endfacet
  facet normal 0.207808 -0.97817 0
    outer loop
      vertex -8.54508 11.2553 -7.875
      vertex -8 11.3711 -5.875
      vertex -8.54508 11.2553 5.125
    endloop
  endfacet
  facet normal 0.207888 -0.978153 -2.26409e-05
    outer loop
      vertex -7.52264 11.4726 -7.875
      vertex -8 11.3711 -5.875
      vertex -8.54508 11.2553 -7.875
    endloop
  endfacet
  facet normal 0.207978 -0.978133 0
    outer loop
      vertex -8 11.3711 -5.875
      vertex -7.52264 11.4726 -7.875
      vertex -7.52264 11.4726 -5.875
    endloop
  endfacet
  facet normal -0.951056 0.309018 0
    outer loop
      vertex -2.43227 4.46632 -7.875
      vertex -2.10926 5.46044 -5.875
      vertex -2.10926 5.46044 -7.875
    endloop
  endfacet
  facet normal -0.951056 0.309018 0
    outer loop
      vertex -2.10926 5.46044 -5.875
      vertex -2.43227 4.46632 -7.875
      vertex -2.43227 4.46632 -5.875
    endloop
  endfacet
  facet normal 0.587762 -0.809034 0
    outer loop
      vertex -10.3457 10.2157 -7.875
      vertex -9.5 10.8301 5.125
      vertex -10.3457 10.2157 5.125
    endloop
  endfacet
  facet normal 0.587762 -0.809034 0
    outer loop
      vertex -9.5 10.8301 5.125
      vertex -10.3457 10.2157 -7.875
      vertex -9.5 10.8301 -7.875
    endloop
  endfacet
  facet normal -0.207913 0.978147 0
    outer loop
      vertex -5.45491 1.74472 -7.875
      vertex -6.47736 1.52739 -5.875
      vertex -5.45491 1.74472 -5.875
    endloop
  endfacet
  facet normal -0.207913 0.978147 0
    outer loop
      vertex -6.47736 1.52739 -5.875
      vertex -5.45491 1.74472 -7.875
      vertex -6.47736 1.52739 -7.875
    endloop
  endfacet
  facet normal -0.743138 0.669139 0
    outer loop
      vertex -3.65435 2.78428 -7.875
      vertex -2.95491 3.56107 -5.875
      vertex -2.95491 3.56107 -7.875
    endloop
  endfacet
  facet normal -0.743138 0.669139 0
    outer loop
      vertex -2.95491 3.56107 -5.875
      vertex -3.65435 2.78428 -7.875
      vertex -3.65435 2.78428 -5.875
    endloop
  endfacet
  facet normal -0.406734 0.913547 0
    outer loop
      vertex -4.5 2.16987 -7.875
      vertex -5.45491 1.74472 -5.875
      vertex -4.5 2.16987 -5.875
    endloop
  endfacet
  facet normal -0.406734 0.913547 0
    outer loop
      vertex -5.45491 1.74472 -5.875
      vertex -4.5 2.16987 -7.875
      vertex -5.45491 1.74472 -7.875
    endloop
  endfacet
  facet normal -0.994522 0.104526 0
    outer loop
      vertex -2.10926 5.46044 -7.875
      vertex -2 6.5 -5.875
      vertex -2 6.5 -7.875
    endloop
  endfacet
  facet normal -0.994522 0.104526 0
    outer loop
      vertex -2 6.5 -5.875
      vertex -2.10926 5.46044 -7.875
      vertex -2.10926 5.46044 -5.875
    endloop
  endfacet
  facet normal -0.866028 0.499995 0
    outer loop
      vertex -2.95491 3.56107 -7.875
      vertex -2.43227 4.46632 -5.875
      vertex -2.43227 4.46632 -7.875
    endloop
  endfacet
  facet normal -0.866028 0.499995 0
    outer loop
      vertex -2.43227 4.46632 -5.875
      vertex -2.95491 3.56107 -7.875
      vertex -2.95491 3.56107 -5.875
    endloop
  endfacet
  facet normal -0.587785 -0.809017 0
    outer loop
      vertex -4.5 10.8301 -7.875
      vertex -3.65435 10.2157 -5.875
      vertex -4.5 10.8301 -5.875
    endloop
  endfacet
  facet normal -0.587785 -0.809017 -0
    outer loop
      vertex -3.65435 10.2157 -5.875
      vertex -4.5 10.8301 -7.875
      vertex -3.65435 10.2157 -7.875
    endloop
  endfacet
  facet normal 0.207915 0.978147 -0
    outer loop
      vertex -7.52264 1.52739 -7.875
      vertex -8.54508 1.74472 5.125
      vertex -7.52264 1.52739 5.125
    endloop
  endfacet
  facet normal 0.207915 0.978147 0
    outer loop
      vertex -8.54508 1.74472 5.125
      vertex -7.52264 1.52739 -7.875
      vertex -8.54508 1.74472 -7.875
    endloop
  endfacet
  facet normal 0 -1 0
    outer loop
      vertex -7.52264 11.4726 -7.875
      vertex -6.47736 11.4726 -5.875
      vertex -7.52264 11.4726 -5.875
    endloop
  endfacet
  facet normal 0 -1 -0
    outer loop
      vertex -6.47736 11.4726 -5.875
      vertex -7.52264 11.4726 -7.875
      vertex -6.47736 11.4726 -7.875
    endloop
  endfacet
  facet normal 0.951059 0.309009 0
    outer loop
      vertex -11.5677 4.46632 5.125
      vertex -11.8907 5.46044 -7.875
      vertex -11.8907 5.46044 5.125
    endloop
  endfacet
  facet normal 0.951059 0.309009 0
    outer loop
      vertex -11.8907 5.46044 -7.875
      vertex -11.5677 4.46632 5.125
      vertex -11.5677 4.46632 -7.875
    endloop
  endfacet
  facet normal 0 1 0
    outer loop
      vertex -6.47736 1.52739 -5.875
      vertex -6.47736 1.52739 -7.875
      vertex -7 1.52739 -5.875
    endloop
  endfacet
  facet normal 0 1 -0
    outer loop
      vertex -7 1.52739 -5.875
      vertex -7.52264 1.52739 5.125
      vertex -7 1.52739 5.125
    endloop
  endfacet
  facet normal 0 1 0
    outer loop
      vertex -7 1.52739 -5.875
      vertex -7.52264 1.52739 -7.875
      vertex -7.52264 1.52739 5.125
    endloop
  endfacet
  facet normal 0 1 0
    outer loop
      vertex -7.52264 1.52739 -7.875
      vertex -7 1.52739 -5.875
      vertex -6.47736 1.52739 -7.875
    endloop
  endfacet
  facet normal 0.743157 0.669117 0
    outer loop
      vertex -10.3457 2.78428 5.125
      vertex -11.0451 3.56107 -7.875
      vertex -11.0451 3.56107 5.125
    endloop
  endfacet
  facet normal 0.743157 0.669117 0
    outer loop
      vertex -11.0451 3.56107 -7.875
      vertex -10.3457 2.78428 5.125
      vertex -10.3457 2.78428 -7.875
    endloop
  endfacet
  facet normal 0.587768 0.809029 -0
    outer loop
      vertex -9.5 2.16987 -7.875
      vertex -10.3457 2.78428 5.125
      vertex -9.5 2.16987 5.125
    endloop
  endfacet
  facet normal 0.587768 0.809029 0
    outer loop
      vertex -10.3457 2.78428 5.125
      vertex -9.5 2.16987 -7.875
      vertex -10.3457 2.78428 -7.875
    endloop
  endfacet
  facet normal 0.40673 0.913548 -0
    outer loop
      vertex -8.54508 1.74472 -7.875
      vertex -9.5 2.16987 5.125
      vertex -8.54508 1.74472 5.125
    endloop
  endfacet
  facet normal 0.40673 0.913548 0
    outer loop
      vertex -9.5 2.16987 5.125
      vertex -8.54508 1.74472 -7.875
      vertex -9.5 2.16987 -7.875
    endloop
  endfacet
  facet normal 0.866045 -0.499967 0
    outer loop
      vertex -11.5677 8.53368 5.125
      vertex -11.0451 9.43893 -7.875
      vertex -11.0451 9.43893 5.125
    endloop
  endfacet
  facet normal 0.866045 -0.499967 0
    outer loop
      vertex -11.0451 9.43893 -7.875
      vertex -11.5677 8.53368 5.125
      vertex -11.5677 8.53368 -7.875
    endloop
  endfacet
  facet normal -0.951048 -0.309043 0
    outer loop
      vertex -9.02185 13.5829 -2.5
      vertex -9.08645 13.7817 5.125
      vertex -9.08645 13.7817 -2.5
    endloop
  endfacet
  facet normal -0.951048 -0.309043 0
    outer loop
      vertex -9.08645 13.7817 5.125
      vertex -9.02185 13.5829 -2.5
      vertex -9.02185 13.5829 5.125
    endloop
  endfacet
  facet normal -0.994522 -0.104523 0
    outer loop
      vertex -9 13.375 -2.5
      vertex -9.02185 13.5829 5.125
      vertex -9.02185 13.5829 -2.5
    endloop
  endfacet
  facet normal -0.994522 -0.104523 0
    outer loop
      vertex -9.02185 13.5829 5.125
      vertex -9 13.375 -2.5
      vertex -9 13.375 5.125
    endloop
  endfacet
  facet normal -0.207611 -0.978211 0
    outer loop
      vertex -9.89547 14.3695 -2.5
      vertex -9.69098 14.3261 5.125
      vertex -9.89547 14.3695 5.125
    endloop
  endfacet
  facet normal -0.207611 -0.978211 -0
    outer loop
      vertex -9.69098 14.3261 5.125
      vertex -9.89547 14.3695 -2.5
      vertex -9.69098 14.3261 -2.5
    endloop
  endfacet
  facet normal -0.951048 0.309043 0
    outer loop
      vertex -9.08645 12.9683 -2.5
      vertex -9.02185 13.1671 5.125
      vertex -9.02185 13.1671 -2.5
    endloop
  endfacet
  facet normal -0.951048 0.309043 0
    outer loop
      vertex -9.02185 13.1671 5.125
      vertex -9.08645 12.9683 -2.5
      vertex -9.08645 12.9683 5.125
    endloop
  endfacet
  facet normal 0.406981 -0.913436 0
    outer loop
      vertex -10.5 14.241 -2.5
      vertex -10.309 14.3261 5.125
      vertex -10.5 14.241 5.125
    endloop
  endfacet
  facet normal 0.406981 -0.913436 0
    outer loop
      vertex -10.309 14.3261 5.125
      vertex -10.5 14.241 -2.5
      vertex -10.309 14.3261 -2.5
    endloop
  endfacet
  facet normal 0.406981 0.913436 -0
    outer loop
      vertex -10.309 12.4239 -2.5
      vertex -10.5 12.509 5.125
      vertex -10.309 12.4239 5.125
    endloop
  endfacet
  facet normal 0.406981 0.913436 0
    outer loop
      vertex -10.5 12.509 5.125
      vertex -10.309 12.4239 -2.5
      vertex -10.5 12.509 -2.5
    endloop
  endfacet
  facet normal -0.743009 -0.669282 0
    outer loop
      vertex -9.19098 13.9628 -2.5
      vertex -9.33087 14.1181 5.125
      vertex -9.33087 14.1181 -2.5
    endloop
  endfacet
  facet normal -0.743009 -0.669282 0
    outer loop
      vertex -9.33087 14.1181 5.125
      vertex -9.19098 13.9628 -2.5
      vertex -9.19098 13.9628 5.125
    endloop
  endfacet
  facet normal -0.866084 -0.499899 0
    outer loop
      vertex -9.08645 13.7817 -2.5
      vertex -9.19098 13.9628 5.125
      vertex -9.19098 13.9628 -2.5
    endloop
  endfacet
  facet normal -0.866084 -0.499899 0
    outer loop
      vertex -9.19098 13.9628 5.125
      vertex -9.08645 13.7817 -2.5
      vertex -9.08645 13.7817 5.125
    endloop
  endfacet
  facet normal -0.207611 0.978211 0
    outer loop
      vertex -9.69098 12.4239 -2.5
      vertex -9.89547 12.3805 5.125
      vertex -9.69098 12.4239 5.125
    endloop
  endfacet
  facet normal -0.207611 0.978211 0
    outer loop
      vertex -9.89547 12.3805 5.125
      vertex -9.69098 12.4239 -2.5
      vertex -9.89547 12.3805 -2.5
    endloop
  endfacet
  facet normal 0.207601 -0.978214 0
    outer loop
      vertex -10.309 14.3261 -2.5
      vertex -10.1045 14.3695 5.125
      vertex -10.309 14.3261 5.125
    endloop
  endfacet
  facet normal 0.207601 -0.978214 0
    outer loop
      vertex -10.1045 14.3695 5.125
      vertex -10.309 14.3261 -2.5
      vertex -10.1045 14.3695 -2.5
    endloop
  endfacet
  facet normal 0 -1 0
    outer loop
      vertex -10.1045 14.3695 -2.5
      vertex -9.89547 14.3695 5.125
      vertex -10.1045 14.3695 5.125
    endloop
  endfacet
  facet normal 0 -1 -0
    outer loop
      vertex -9.89547 14.3695 5.125
      vertex -10.1045 14.3695 -2.5
      vertex -9.89547 14.3695 -2.5
    endloop
  endfacet
  facet normal 0.866146 -0.499791 0
    outer loop
      vertex -10.9135 13.7817 5.125
      vertex -10.809 13.9628 -2.5
      vertex -10.809 13.9628 5.125
    endloop
  endfacet
  facet normal 0.866146 -0.499791 0
    outer loop
      vertex -10.809 13.9628 -2.5
      vertex -10.9135 13.7817 5.125
      vertex -10.9135 13.7817 -2.5
    endloop
  endfacet
  facet normal -0.407017 -0.913421 0
    outer loop
      vertex -9.69098 14.3261 -2.5
      vertex -9.5 14.241 5.125
      vertex -9.69098 14.3261 5.125
    endloop
  endfacet
  facet normal -0.407017 -0.913421 -0
    outer loop
      vertex -9.5 14.241 5.125
      vertex -9.69098 14.3261 -2.5
      vertex -9.5 14.241 -2.5
    endloop
  endfacet
  facet normal 0.866146 0.499791 0
    outer loop
      vertex -10.809 12.7872 5.125
      vertex -10.9135 12.9683 -2.5
      vertex -10.9135 12.9683 5.125
    endloop
  endfacet
  facet normal 0.866146 0.499791 0
    outer loop
      vertex -10.9135 12.9683 -2.5
      vertex -10.809 12.7872 5.125
      vertex -10.809 12.7872 -2.5
    endloop
  endfacet
  facet normal 0.951048 -0.309043 0
    outer loop
      vertex -10.9781 13.5829 5.125
      vertex -10.9135 13.7817 -2.5
      vertex -10.9135 13.7817 5.125
    endloop
  endfacet
  facet normal 0.951048 -0.309043 0
    outer loop
      vertex -10.9135 13.7817 -2.5
      vertex -10.9781 13.5829 5.125
      vertex -10.9781 13.5829 -2.5
    endloop
  endfacet
  facet normal 0.994498 -0.104759 0
    outer loop
      vertex -11 13.375 5.125
      vertex -10.9781 13.5829 -2.5
      vertex -10.9781 13.5829 5.125
    endloop
  endfacet
  facet normal 0.994498 -0.104759 0
    outer loop
      vertex -10.9781 13.5829 -2.5
      vertex -11 13.375 5.125
      vertex -11 13.375 -2.5
    endloop
  endfacet
  facet normal 0.742985 -0.669308 0
    outer loop
      vertex -10.809 13.9628 5.125
      vertex -10.6691 14.1181 -2.5
      vertex -10.6691 14.1181 5.125
    endloop
  endfacet
  facet normal 0.742985 -0.669308 0
    outer loop
      vertex -10.6691 14.1181 -2.5
      vertex -10.809 13.9628 5.125
      vertex -10.809 13.9628 -2.5
    endloop
  endfacet
  facet normal -0.407017 0.913421 0
    outer loop
      vertex -9.5 12.509 -2.5
      vertex -9.69098 12.4239 5.125
      vertex -9.5 12.509 5.125
    endloop
  endfacet
  facet normal -0.407017 0.913421 0
    outer loop
      vertex -9.69098 12.4239 5.125
      vertex -9.5 12.509 -2.5
      vertex -9.69098 12.4239 -2.5
    endloop
  endfacet
  facet normal -0.994522 0.104523 0
    outer loop
      vertex -9.02185 13.1671 -2.5
      vertex -9 13.375 5.125
      vertex -9 13.375 -2.5
    endloop
  endfacet
  facet normal -0.994522 0.104523 0
    outer loop
      vertex -9 13.375 5.125
      vertex -9.02185 13.1671 -2.5
      vertex -9.02185 13.1671 5.125
    endloop
  endfacet
  facet normal 0.207601 0.978214 -0
    outer loop
      vertex -10.1045 12.3805 -2.5
      vertex -10.309 12.4239 5.125
      vertex -10.1045 12.3805 5.125
    endloop
  endfacet
  facet normal 0.207601 0.978214 0
    outer loop
      vertex -10.309 12.4239 5.125
      vertex -10.1045 12.3805 -2.5
      vertex -10.309 12.4239 -2.5
    endloop
  endfacet
  facet normal -0.866084 0.499899 0
    outer loop
      vertex -9.19098 12.7872 -2.5
      vertex -9.08645 12.9683 5.125
      vertex -9.08645 12.9683 -2.5
    endloop
  endfacet
  facet normal -0.866084 0.499899 0
    outer loop
      vertex -9.08645 12.9683 5.125
      vertex -9.19098 12.7872 -2.5
      vertex -9.19098 12.7872 5.125
    endloop
  endfacet
  facet normal -0.743009 0.669282 0
    outer loop
      vertex -9.33087 12.6319 -2.5
      vertex -9.19098 12.7872 5.125
      vertex -9.19098 12.7872 -2.5
    endloop
  endfacet
  facet normal -0.743009 0.669282 0
    outer loop
      vertex -9.19098 12.7872 5.125
      vertex -9.33087 12.6319 -2.5
      vertex -9.33087 12.6319 5.125
    endloop
  endfacet
  facet normal -0.587847 -0.808972 0
    outer loop
      vertex -9.5 14.241 -2.5
      vertex -9.33087 14.1181 5.125
      vertex -9.5 14.241 5.125
    endloop
  endfacet
  facet normal -0.587847 -0.808972 -0
    outer loop
      vertex -9.33087 14.1181 5.125
      vertex -9.5 14.241 -2.5
      vertex -9.33087 14.1181 -2.5
    endloop
  endfacet
  facet normal 0.587916 -0.808922 0
    outer loop
      vertex -10.6691 14.1181 -2.5
      vertex -10.5 14.241 5.125
      vertex -10.6691 14.1181 5.125
    endloop
  endfacet
  facet normal 0.587916 -0.808922 0
    outer loop
      vertex -10.5 14.241 5.125
      vertex -10.6691 14.1181 -2.5
      vertex -10.5 14.241 -2.5
    endloop
  endfacet
  facet normal -0.587847 0.808972 0
    outer loop
      vertex -9.33087 12.6319 -2.5
      vertex -9.5 12.509 5.125
      vertex -9.33087 12.6319 5.125
    endloop
  endfacet
  facet normal -0.587847 0.808972 0
    outer loop
      vertex -9.5 12.509 5.125
      vertex -9.33087 12.6319 -2.5
      vertex -9.5 12.509 -2.5
    endloop
  endfacet
  facet normal 0 1 -0
    outer loop
      vertex -9.89547 12.3805 -2.5
      vertex -10.1045 12.3805 5.125
      vertex -9.89547 12.3805 5.125
    endloop
  endfacet
  facet normal 0 1 0
    outer loop
      vertex -10.1045 12.3805 5.125
      vertex -9.89547 12.3805 -2.5
      vertex -10.1045 12.3805 -2.5
    endloop
  endfacet
  facet normal 0.951048 0.309043 0
    outer loop
      vertex -10.9135 12.9683 5.125
      vertex -10.9781 13.1671 -2.5
      vertex -10.9781 13.1671 5.125
    endloop
  endfacet
  facet normal 0.951048 0.309043 0
    outer loop
      vertex -10.9781 13.1671 -2.5
      vertex -10.9135 12.9683 5.125
      vertex -10.9135 12.9683 -2.5
    endloop
  endfacet
  facet normal 0.742985 0.669308 0
    outer loop
      vertex -10.6691 12.6319 5.125
      vertex -10.809 12.7872 -2.5
      vertex -10.809 12.7872 5.125
    endloop
  endfacet
  facet normal 0.742985 0.669308 0
    outer loop
      vertex -10.809 12.7872 -2.5
      vertex -10.6691 12.6319 5.125
      vertex -10.6691 12.6319 -2.5
    endloop
  endfacet
  facet normal 0 0 1
    outer loop
      vertex -9.02185 13.5829 -2.5
      vertex -9.02185 13.1671 -2.5
      vertex -9 13.375 -2.5
    endloop
  endfacet
  facet normal 0 0 1
    outer loop
      vertex -9.08645 13.7817 -2.5
      vertex -9.02185 13.1671 -2.5
      vertex -9.02185 13.5829 -2.5
    endloop
  endfacet
  facet normal 0 0 1
    outer loop
      vertex -9.08645 13.7817 -2.5
      vertex -9.08645 12.9683 -2.5
      vertex -9.02185 13.1671 -2.5
    endloop
  endfacet
  facet normal 0 0 1
    outer loop
      vertex -9.19098 13.9628 -2.5
      vertex -9.08645 12.9683 -2.5
      vertex -9.08645 13.7817 -2.5
    endloop
  endfacet
  facet normal 0 0 1
    outer loop
      vertex -9.19098 13.9628 -2.5
      vertex -9.19098 12.7872 -2.5
      vertex -9.08645 12.9683 -2.5
    endloop
  endfacet
  facet normal 0 0 1
    outer loop
      vertex -9.33087 14.1181 -2.5
      vertex -9.19098 12.7872 -2.5
      vertex -9.19098 13.9628 -2.5
    endloop
  endfacet
  facet normal 0 0 1
    outer loop
      vertex -9.33087 14.1181 -2.5
      vertex -9.33087 12.6319 -2.5
      vertex -9.19098 12.7872 -2.5
    endloop
  endfacet
  facet normal 0 0 1
    outer loop
      vertex -9.5 14.241 -2.5
      vertex -9.33087 12.6319 -2.5
      vertex -9.33087 14.1181 -2.5
    endloop
  endfacet
  facet normal 0 0 1
    outer loop
      vertex -9.5 14.241 -2.5
      vertex -9.5 12.509 -2.5
      vertex -9.33087 12.6319 -2.5
    endloop
  endfacet
  facet normal 0 0 1
    outer loop
      vertex -9.69098 14.3261 -2.5
      vertex -9.5 12.509 -2.5
      vertex -9.5 14.241 -2.5
    endloop
  endfacet
  facet normal 0 0 1
    outer loop
      vertex -9.69098 14.3261 -2.5
      vertex -9.69098 12.4239 -2.5
      vertex -9.5 12.509 -2.5
    endloop
  endfacet
  facet normal 0 0 1
    outer loop
      vertex -9.89547 14.3695 -2.5
      vertex -9.69098 12.4239 -2.5
      vertex -9.69098 14.3261 -2.5
    endloop
  endfacet
  facet normal 0 0 1
    outer loop
      vertex -9.89547 14.3695 -2.5
      vertex -9.89547 12.3805 -2.5
      vertex -9.69098 12.4239 -2.5
    endloop
  endfacet
  facet normal -0 0 1
    outer loop
      vertex -10.1045 14.3695 -2.5
      vertex -9.89547 12.3805 -2.5
      vertex -9.89547 14.3695 -2.5
    endloop
  endfacet
  facet normal 0 0 1
    outer loop
      vertex -10.1045 14.3695 -2.5
      vertex -10.1045 12.3805 -2.5
      vertex -9.89547 12.3805 -2.5
    endloop
  endfacet
  facet normal -0 0 1
    outer loop
      vertex -10.309 14.3261 -2.5
      vertex -10.1045 12.3805 -2.5
      vertex -10.1045 14.3695 -2.5
    endloop
  endfacet
  facet normal 0 0 1
    outer loop
      vertex -10.309 14.3261 -2.5
      vertex -10.309 12.4239 -2.5
      vertex -10.1045 12.3805 -2.5
    endloop
  endfacet
  facet normal -0 0 1
    outer loop
      vertex -10.5 14.241 -2.5
      vertex -10.309 12.4239 -2.5
      vertex -10.309 14.3261 -2.5
    endloop
  endfacet
  facet normal 0 0 1
    outer loop
      vertex -10.5 14.241 -2.5
      vertex -10.5 12.509 -2.5
      vertex -10.309 12.4239 -2.5
    endloop
  endfacet
  facet normal -0 0 1
    outer loop
      vertex -10.6691 14.1181 -2.5
      vertex -10.5 12.509 -2.5
      vertex -10.5 14.241 -2.5
    endloop
  endfacet
  facet normal 0 0 1
    outer loop
      vertex -10.6691 14.1181 -2.5
      vertex -10.6691 12.6319 -2.5
      vertex -10.5 12.509 -2.5
    endloop
  endfacet
  facet normal -0 0 1
    outer loop
      vertex -10.809 13.9628 -2.5
      vertex -10.6691 12.6319 -2.5
      vertex -10.6691 14.1181 -2.5
    endloop
  endfacet
  facet normal 0 0 1
    outer loop
      vertex -10.809 13.9628 -2.5
      vertex -10.809 12.7872 -2.5
      vertex -10.6691 12.6319 -2.5
    endloop
  endfacet
  facet normal -0 0 1
    outer loop
      vertex -10.9135 13.7817 -2.5
      vertex -10.809 12.7872 -2.5
      vertex -10.809 13.9628 -2.5
    endloop
  endfacet
  facet normal 0 0 1
    outer loop
      vertex -10.9135 13.7817 -2.5
      vertex -10.9135 12.9683 -2.5
      vertex -10.809 12.7872 -2.5
    endloop
  endfacet
  facet normal -0 0 1
    outer loop
      vertex -10.9781 13.5829 -2.5
      vertex -10.9135 12.9683 -2.5
      vertex -10.9135 13.7817 -2.5
    endloop
  endfacet
  facet normal 0 0 1
    outer loop
      vertex -10.9781 13.5829 -2.5
      vertex -10.9781 13.1671 -2.5
      vertex -10.9135 12.9683 -2.5
    endloop
  endfacet
  facet normal 0 -0 1
    outer loop
      vertex -10.9781 13.1671 -2.5
      vertex -10.9781 13.5829 -2.5
      vertex -11 13.375 -2.5
    endloop
  endfacet
  facet normal 0.994498 0.104759 0
    outer loop
      vertex -10.9781 13.1671 5.125
      vertex -11 13.375 -2.5
      vertex -11 13.375 5.125
    endloop
  endfacet
  facet normal 0.994498 0.104759 0
    outer loop
      vertex -11 13.375 -2.5
      vertex -10.9781 13.1671 5.125
      vertex -10.9781 13.1671 -2.5
    endloop
  endfacet
  facet normal 0.587916 0.808922 -0
    outer loop
      vertex -10.5 12.509 -2.5
      vertex -10.6691 12.6319 5.125
      vertex -10.5 12.509 5.125
    endloop
  endfacet
  facet normal 0.587916 0.808922 0
    outer loop
      vertex -10.6691 12.6319 5.125
      vertex -10.5 12.509 -2.5
      vertex -10.6691 12.6319 -2.5
    endloop
  endfacet
  facet normal -0.951059 -0.309008 0
    outer loop
      vertex -9.02185 -0.167088 -2.5
      vertex -9.08645 0.0317364 5.125
      vertex -9.08645 0.0317364 -2.5
    endloop
  endfacet
  facet normal -0.951059 -0.309008 0
    outer loop
      vertex -9.08645 0.0317364 5.125
      vertex -9.02185 -0.167088 -2.5
      vertex -9.02185 -0.167088 5.125
    endloop
  endfacet
  facet normal -0.994523 -0.104517 0
    outer loop
      vertex -9 -0.375 -2.5
      vertex -9.02185 -0.167088 5.125
      vertex -9.02185 -0.167088 -2.5
    endloop
  endfacet
  facet normal -0.994523 -0.104517 0
    outer loop
      vertex -9.02185 -0.167088 5.125
      vertex -9 -0.375 -2.5
      vertex -9 -0.375 5.125
    endloop
  endfacet
  facet normal -0.207909 -0.978148 0
    outer loop
      vertex -9.89547 0.619521 -2.5
      vertex -9.69098 0.576056 5.125
      vertex -9.89547 0.619521 5.125
    endloop
  endfacet
  facet normal -0.207909 -0.978148 -0
    outer loop
      vertex -9.69098 0.576056 5.125
      vertex -9.89547 0.619521 -2.5
      vertex -9.69098 0.576056 -2.5
    endloop
  endfacet
  facet normal -0.95106 0.309008 0
    outer loop
      vertex -9.08645 -0.781736 -2.5
      vertex -9.02185 -0.582911 5.125
      vertex -9.02185 -0.582911 -2.5
    endloop
  endfacet
  facet normal -0.95106 0.309008 0
    outer loop
      vertex -9.02185 -0.582911 5.125
      vertex -9.08645 -0.781736 -2.5
      vertex -9.08645 -0.781736 5.125
    endloop
  endfacet
  facet normal 0.406706 -0.913559 0
    outer loop
      vertex -10.5 0.491025 -2.5
      vertex -10.309 0.576056 5.125
      vertex -10.5 0.491025 5.125
    endloop
  endfacet
  facet normal 0.406706 -0.913559 0
    outer loop
      vertex -10.309 0.576056 5.125
      vertex -10.5 0.491025 -2.5
      vertex -10.309 0.576056 -2.5
    endloop
  endfacet
  facet normal 0.406742 0.913543 -0
    outer loop
      vertex -10.309 -1.32606 -2.5
      vertex -10.5 -1.24102 5.125
      vertex -10.309 -1.32606 5.125
    endloop
  endfacet
  facet normal 0.406742 0.913543 0
    outer loop
      vertex -10.5 -1.24102 5.125
      vertex -10.309 -1.32606 -2.5
      vertex -10.5 -1.24102 -2.5
    endloop
  endfacet
  facet normal -0.743135 -0.669142 0
    outer loop
      vertex -9.19098 0.212785 -2.5
      vertex -9.33087 0.368144 5.125
      vertex -9.33087 0.368144 -2.5
    endloop
  endfacet
  facet normal -0.743135 -0.669142 0
    outer loop
      vertex -9.33087 0.368144 5.125
      vertex -9.19098 0.212785 -2.5
      vertex -9.19098 0.212785 5.125
    endloop
  endfacet
  facet normal -0.866022 -0.500006 0
    outer loop
      vertex -9.08645 0.0317364 -2.5
      vertex -9.19098 0.212785 5.125
      vertex -9.19098 0.212785 -2.5
    endloop
  endfacet
  facet normal -0.866022 -0.500006 0
    outer loop
      vertex -9.19098 0.212785 5.125
      vertex -9.08645 0.0317364 -2.5
      vertex -9.08645 0.0317364 5.125
    endloop
  endfacet
  facet normal -0.587785 0.809017 0
    outer loop
      vertex -9.33087 -1.11814 -2.5
      vertex -9.5 -1.24102 5.125
      vertex -9.33087 -1.11814 5.125
    endloop
  endfacet
  facet normal -0.587785 0.809017 0
    outer loop
      vertex -9.5 -1.24102 5.125
      vertex -9.33087 -1.11814 -2.5
      vertex -9.5 -1.24102 -2.5
    endloop
  endfacet
  facet normal -0.207886 0.978153 0
    outer loop
      vertex -9.69098 -1.32606 -2.5
      vertex -9.89547 -1.36952 5.125
      vertex -9.69098 -1.32606 5.125
    endloop
  endfacet
  facet normal -0.207886 0.978153 0
    outer loop
      vertex -9.89547 -1.36952 5.125
      vertex -9.69098 -1.32606 -2.5
      vertex -9.89547 -1.36952 -2.5
    endloop
  endfacet
  facet normal 0.587856 -0.808965 0
    outer loop
      vertex -10.6691 0.368144 -2.5
      vertex -10.5 0.491025 5.125
      vertex -10.6691 0.368144 5.125
    endloop
  endfacet
  facet normal 0.587856 -0.808965 0
    outer loop
      vertex -10.5 0.491025 5.125
      vertex -10.6691 0.368144 -2.5
      vertex -10.5 0.491025 -2.5
    endloop
  endfacet
  facet normal 0.207899 -0.97815 0
    outer loop
      vertex -10.309 0.576056 -2.5
      vertex -10.1045 0.619521 5.125
      vertex -10.309 0.576056 5.125
    endloop
  endfacet
  facet normal 0.207899 -0.97815 0
    outer loop
      vertex -10.1045 0.619521 5.125
      vertex -10.309 0.576056 -2.5
      vertex -10.1045 0.619521 -2.5
    endloop
  endfacet
  facet normal 0 -1 0
    outer loop
      vertex -10.1045 0.619521 -2.5
      vertex -9.89547 0.619521 5.125
      vertex -10.1045 0.619521 5.125
    endloop
  endfacet
  facet normal 0 -1 -0
    outer loop
      vertex -9.89547 0.619521 5.125
      vertex -10.1045 0.619521 -2.5
      vertex -9.89547 0.619521 -2.5
    endloop
  endfacet
  facet normal 0.866084 -0.499898 0
    outer loop
      vertex -10.9135 0.0317364 5.125
      vertex -10.809 0.212785 -2.5
      vertex -10.809 0.212785 5.125
    endloop
  endfacet
  facet normal 0.866084 -0.499898 0
    outer loop
      vertex -10.809 0.212785 -2.5
      vertex -10.9135 0.0317364 5.125
      vertex -10.9135 0.0317364 -2.5
    endloop
  endfacet
  facet normal -0.406742 -0.913543 0
    outer loop
      vertex -9.69098 0.576056 -2.5
      vertex -9.5 0.491025 5.125
      vertex -9.69098 0.576056 5.125
    endloop
  endfacet
  facet normal -0.406742 -0.913543 -0
    outer loop
      vertex -9.5 0.491025 5.125
      vertex -9.69098 0.576056 -2.5
      vertex -9.5 0.491025 -2.5
    endloop
  endfacet
  facet normal 0.866085 0.499897 0
    outer loop
      vertex -10.809 -0.962785 5.125
      vertex -10.9135 -0.781736 -2.5
      vertex -10.9135 -0.781736 5.125
    endloop
  endfacet
  facet normal 0.866085 0.499897 0
    outer loop
      vertex -10.9135 -0.781736 -2.5
      vertex -10.809 -0.962785 5.125
      vertex -10.809 -0.962785 -2.5
    endloop
  endfacet
  facet normal 0.951059 -0.309008 0
    outer loop
      vertex -10.9781 -0.167088 5.125
      vertex -10.9135 0.0317364 -2.5
      vertex -10.9135 0.0317364 5.125
    endloop
  endfacet
  facet normal 0.951059 -0.309008 0
    outer loop
      vertex -10.9135 0.0317364 -2.5
      vertex -10.9781 -0.167088 5.125
      vertex -10.9781 -0.167088 -2.5
    endloop
  endfacet
  facet normal 0.994498 -0.104754 0
    outer loop
      vertex -11 -0.375 5.125
      vertex -10.9781 -0.167088 -2.5
      vertex -10.9781 -0.167088 5.125
    endloop
  endfacet
  facet normal 0.994498 -0.104754 0
    outer loop
      vertex -10.9781 -0.167088 -2.5
      vertex -11 -0.375 5.125
      vertex -11 -0.375 -2.5
    endloop
  endfacet
  facet normal 0.743111 -0.669168 0
    outer loop
      vertex -10.809 0.212785 5.125
      vertex -10.6691 0.368144 -2.5
      vertex -10.6691 0.368144 5.125
    endloop
  endfacet
  facet normal 0.743111 -0.669168 0
    outer loop
      vertex -10.6691 0.368144 -2.5
      vertex -10.809 0.212785 5.125
      vertex -10.809 0.212785 -2.5
    endloop
  endfacet
  facet normal -0.406777 0.913527 0
    outer loop
      vertex -9.5 -1.24102 -2.5
      vertex -9.69098 -1.32606 5.125
      vertex -9.5 -1.24102 5.125
    endloop
  endfacet
  facet normal -0.406777 0.913527 0
    outer loop
      vertex -9.69098 -1.32606 5.125
      vertex -9.5 -1.24102 -2.5
      vertex -9.69098 -1.32606 -2.5
    endloop
  endfacet
  facet normal -0.994523 0.104517 0
    outer loop
      vertex -9.02185 -0.582911 -2.5
      vertex -9 -0.375 5.125
      vertex -9 -0.375 -2.5
    endloop
  endfacet
  facet normal -0.994523 0.104517 0
    outer loop
      vertex -9 -0.375 5.125
      vertex -9.02185 -0.582911 -2.5
      vertex -9.02185 -0.582911 5.125
    endloop
  endfacet
  facet normal 0.207876 0.978155 -0
    outer loop
      vertex -10.1045 -1.36952 -2.5
      vertex -10.309 -1.32606 5.125
      vertex -10.1045 -1.36952 5.125
    endloop
  endfacet
  facet normal 0.207876 0.978155 0
    outer loop
      vertex -10.309 -1.32606 5.125
      vertex -10.1045 -1.36952 -2.5
      vertex -10.309 -1.32606 -2.5
    endloop
  endfacet
  facet normal -0.866023 0.500005 0
    outer loop
      vertex -9.19098 -0.962785 -2.5
      vertex -9.08645 -0.781736 5.125
      vertex -9.08645 -0.781736 -2.5
    endloop
  endfacet
  facet normal -0.866023 0.500005 0
    outer loop
      vertex -9.08645 -0.781736 5.125
      vertex -9.19098 -0.962785 -2.5
      vertex -9.19098 -0.962785 5.125
    endloop
  endfacet
  facet normal -0.743126 0.669151 0
    outer loop
      vertex -9.33087 -1.11814 -2.5
      vertex -9.19098 -0.962785 5.125
      vertex -9.19098 -0.962785 -2.5
    endloop
  endfacet
  facet normal -0.743126 0.669151 0
    outer loop
      vertex -9.19098 -0.962785 5.125
      vertex -9.33087 -1.11814 -2.5
      vertex -9.33087 -1.11814 5.125
    endloop
  endfacet
  facet normal -0.587788 -0.809015 0
    outer loop
      vertex -9.5 0.491025 -2.5
      vertex -9.33087 0.368144 5.125
      vertex -9.5 0.491025 5.125
    endloop
  endfacet
  facet normal -0.587788 -0.809015 -0
    outer loop
      vertex -9.33087 0.368144 5.125
      vertex -9.5 0.491025 -2.5
      vertex -9.33087 0.368144 -2.5
    endloop
  endfacet
  facet normal 0 1 -0
    outer loop
      vertex -9.89547 -1.36952 -2.5
      vertex -10.1045 -1.36952 5.125
      vertex -9.89547 -1.36952 5.125
    endloop
  endfacet
  facet normal 0 1 0
    outer loop
      vertex -10.1045 -1.36952 5.125
      vertex -9.89547 -1.36952 -2.5
      vertex -10.1045 -1.36952 -2.5
    endloop
  endfacet
  facet normal 0.95106 0.309008 0
    outer loop
      vertex -10.9135 -0.781736 5.125
      vertex -10.9781 -0.582911 -2.5
      vertex -10.9781 -0.582911 5.125
    endloop
  endfacet
  facet normal 0.95106 0.309008 0
    outer loop
      vertex -10.9781 -0.582911 -2.5
      vertex -10.9135 -0.781736 5.125
      vertex -10.9135 -0.781736 -2.5
    endloop
  endfacet
  facet normal 0.743103 0.669177 0
    outer loop
      vertex -10.6691 -1.11814 5.125
      vertex -10.809 -0.962785 -2.5
      vertex -10.809 -0.962785 5.125
    endloop
  endfacet
  facet normal 0.743103 0.669177 0
    outer loop
      vertex -10.809 -0.962785 -2.5
      vertex -10.6691 -1.11814 5.125
      vertex -10.6691 -1.11814 -2.5
    endloop
  endfacet
  facet normal 0 0 1
    outer loop
      vertex -9.02185 -0.167088 -2.5
      vertex -9.02185 -0.582911 -2.5
      vertex -9 -0.375 -2.5
    endloop
  endfacet
  facet normal 0 0 1
    outer loop
      vertex -9.08645 0.0317364 -2.5
      vertex -9.02185 -0.582911 -2.5
      vertex -9.02185 -0.167088 -2.5
    endloop
  endfacet
  facet normal 0 0 1
    outer loop
      vertex -9.08645 0.0317364 -2.5
      vertex -9.08645 -0.781736 -2.5
      vertex -9.02185 -0.582911 -2.5
    endloop
  endfacet
  facet normal 0 0 1
    outer loop
      vertex -9.19098 0.212785 -2.5
      vertex -9.08645 -0.781736 -2.5
      vertex -9.08645 0.0317364 -2.5
    endloop
  endfacet
  facet normal 0 0 1
    outer loop
      vertex -9.19098 0.212785 -2.5
      vertex -9.19098 -0.962785 -2.5
      vertex -9.08645 -0.781736 -2.5
    endloop
  endfacet
  facet normal 0 0 1
    outer loop
      vertex -9.33087 0.368144 -2.5
      vertex -9.19098 -0.962785 -2.5
      vertex -9.19098 0.212785 -2.5
    endloop
  endfacet
  facet normal 0 0 1
    outer loop
      vertex -9.33087 0.368144 -2.5
      vertex -9.33087 -1.11814 -2.5
      vertex -9.19098 -0.962785 -2.5
    endloop
  endfacet
  facet normal 0 0 1
    outer loop
      vertex -9.5 0.491025 -2.5
      vertex -9.33087 -1.11814 -2.5
      vertex -9.33087 0.368144 -2.5
    endloop
  endfacet
  facet normal 0 0 1
    outer loop
      vertex -9.5 0.491025 -2.5
      vertex -9.5 -1.24102 -2.5
      vertex -9.33087 -1.11814 -2.5
    endloop
  endfacet
  facet normal 0 0 1
    outer loop
      vertex -9.69098 0.576056 -2.5
      vertex -9.5 -1.24102 -2.5
      vertex -9.5 0.491025 -2.5
    endloop
  endfacet
  facet normal 0 0 1
    outer loop
      vertex -9.69098 0.576056 -2.5
      vertex -9.69098 -1.32606 -2.5
      vertex -9.5 -1.24102 -2.5
    endloop
  endfacet
  facet normal 0 0 1
    outer loop
      vertex -9.89547 0.619521 -2.5
      vertex -9.69098 -1.32606 -2.5
      vertex -9.69098 0.576056 -2.5
    endloop
  endfacet
  facet normal 0 0 1
    outer loop
      vertex -9.89547 0.619521 -2.5
      vertex -9.89547 -1.36952 -2.5
      vertex -9.69098 -1.32606 -2.5
    endloop
  endfacet
  facet normal -0 0 1
    outer loop
      vertex -10.1045 0.619521 -2.5
      vertex -9.89547 -1.36952 -2.5
      vertex -9.89547 0.619521 -2.5
    endloop
  endfacet
  facet normal 0 0 1
    outer loop
      vertex -10.1045 0.619521 -2.5
      vertex -10.1045 -1.36952 -2.5
      vertex -9.89547 -1.36952 -2.5
    endloop
  endfacet
  facet normal -0 0 1
    outer loop
      vertex -10.309 0.576056 -2.5
      vertex -10.1045 -1.36952 -2.5
      vertex -10.1045 0.619521 -2.5
    endloop
  endfacet
  facet normal 0 0 1
    outer loop
      vertex -10.309 0.576056 -2.5
      vertex -10.309 -1.32606 -2.5
      vertex -10.1045 -1.36952 -2.5
    endloop
  endfacet
  facet normal -0 0 1
    outer loop
      vertex -10.5 0.491025 -2.5
      vertex -10.309 -1.32606 -2.5
      vertex -10.309 0.576056 -2.5
    endloop
  endfacet
  facet normal 0 0 1
    outer loop
      vertex -10.5 0.491025 -2.5
      vertex -10.5 -1.24102 -2.5
      vertex -10.309 -1.32606 -2.5
    endloop
  endfacet
  facet normal -0 0 1
    outer loop
      vertex -10.6691 0.368144 -2.5
      vertex -10.5 -1.24102 -2.5
      vertex -10.5 0.491025 -2.5
    endloop
  endfacet
  facet normal 0 0 1
    outer loop
      vertex -10.6691 0.368144 -2.5
      vertex -10.6691 -1.11814 -2.5
      vertex -10.5 -1.24102 -2.5
    endloop
  endfacet
  facet normal -0 0 1
    outer loop
      vertex -10.809 0.212785 -2.5
      vertex -10.6691 -1.11814 -2.5
      vertex -10.6691 0.368144 -2.5
    endloop
  endfacet
  facet normal 0 0 1
    outer loop
      vertex -10.809 0.212785 -2.5
      vertex -10.809 -0.962785 -2.5
      vertex -10.6691 -1.11814 -2.5
    endloop
  endfacet
  facet normal -0 0 1
    outer loop
      vertex -10.9135 0.0317364 -2.5
      vertex -10.809 -0.962785 -2.5
      vertex -10.809 0.212785 -2.5
    endloop
  endfacet
  facet normal 0 0 1
    outer loop
      vertex -10.9135 0.0317364 -2.5
      vertex -10.9135 -0.781736 -2.5
      vertex -10.809 -0.962785 -2.5
    endloop
  endfacet
  facet normal -0 0 1
    outer loop
      vertex -10.9781 -0.167088 -2.5
      vertex -10.9135 -0.781736 -2.5
      vertex -10.9135 0.0317364 -2.5
    endloop
  endfacet
  facet normal 0 0 1
    outer loop
      vertex -10.9781 -0.167088 -2.5
      vertex -10.9781 -0.582911 -2.5
      vertex -10.9135 -0.781736 -2.5
    endloop
  endfacet
  facet normal 0 -0 1
    outer loop
      vertex -10.9781 -0.582911 -2.5
      vertex -10.9781 -0.167088 -2.5
      vertex -11 -0.375 -2.5
    endloop
  endfacet
  facet normal 0.994498 0.104754 0
    outer loop
      vertex -10.9781 -0.582911 5.125
      vertex -11 -0.375 -2.5
      vertex -11 -0.375 5.125
    endloop
  endfacet
  facet normal 0.994498 0.104754 0
    outer loop
      vertex -11 -0.375 -2.5
      vertex -10.9781 -0.582911 5.125
      vertex -10.9781 -0.582911 -2.5
    endloop
  endfacet
  facet normal 0.587853 0.808968 -0
    outer loop
      vertex -10.5 -1.24102 -2.5
      vertex -10.6691 -1.11814 5.125
      vertex -10.5 -1.24102 5.125
    endloop
  endfacet
  facet normal 0.587853 0.808968 0
    outer loop
      vertex -10.6691 -1.11814 5.125
      vertex -10.5 -1.24102 -2.5
      vertex -10.6691 -1.11814 -2.5
    endloop
  endfacet
  facet normal 0 -1 0
    outer loop
      vertex 18 -8 -3
      vertex 21 -8 5
      vertex 18 -8 5
    endloop
  endfacet
  facet normal 0 -1 -0
    outer loop
      vertex 21 -8 5
      vertex 18 -8 -3
      vertex 21 -8 -3
    endloop
  endfacet
  facet normal -1 0 0
    outer loop
      vertex 18 -8 -3
      vertex 18 -5.8 5
      vertex 18 -5.8 -3
    endloop
  endfacet
  facet normal -1 -0 0
    outer loop
      vertex 18 -5.8 5
      vertex 18 -8 -3
      vertex 18 -8 5
    endloop
  endfacet
  facet normal 0 0 -1
    outer loop
      vertex 18 -8 -3
      vertex 21 -5.8 -3
      vertex 21 -8 -3
    endloop
  endfacet
  facet normal -0 0 -1
    outer loop
      vertex 21 -5.8 -3
      vertex 18 -8 -3
      vertex 18 -5.8 -3
    endloop
  endfacet
  facet normal -0 0 1
    outer loop
      vertex 18 -5.8 5
      vertex 21 -8 5
      vertex 21 -5.8 5
    endloop
  endfacet
  facet normal 0 0 1
    outer loop
      vertex 21 -8 5
      vertex 18 -5.8 5
      vertex 18 -8 5
    endloop
  endfacet
  facet normal 1 -0 0
    outer loop
      vertex -18 -8 5
      vertex -18 -5.8 -3
      vertex -18 -5.8 5
    endloop
  endfacet
  facet normal 1 0 0
    outer loop
      vertex -18 -5.8 -3
      vertex -18 -8 5
      vertex -18 -8 -3
    endloop
  endfacet
  facet normal 0 -1 0
    outer loop
      vertex -21 -8 -3
      vertex -18 -8 5
      vertex -21 -8 5
    endloop
  endfacet
  facet normal 0 -1 -0
    outer loop
      vertex -18 -8 5
      vertex -21 -8 -3
      vertex -18 -8 -3
    endloop
  endfacet
  facet normal 0 0 -1
    outer loop
      vertex -21 -8 -3
      vertex -18 -5.8 -3
      vertex -18 -8 -3
    endloop
  endfacet
  facet normal -0 0 -1
    outer loop
      vertex -18 -5.8 -3
      vertex -21 -8 -3
      vertex -21 -5.8 -3
    endloop
  endfacet
  facet normal -0 0 1
    outer loop
      vertex -21 -5.8 5
      vertex -18 -8 5
      vertex -18 -5.8 5
    endloop
  endfacet
  facet normal 0 0 1
    outer loop
      vertex -18 -8 5
      vertex -21 -5.8 5
      vertex -21 -8 5
    endloop
  endfacet
endsolid OpenSCAD_Model
